<svg width="111" height="51" viewBox="0 0 111 51" fill="none" xmlns="http://www.w3.org/2000/svg">
<mask id="mask0_0_1" style="mask-type:alpha" maskUnits="userSpaceOnUse" x="0" y="0" width="48" height="51">
<path fill-rule="evenodd" clip-rule="evenodd" d="M0 0H48V51H0V0Z" fill="white"/>
</mask>
<g mask="url(#mask0_0_1)">
<path fill-rule="evenodd" clip-rule="evenodd" d="M47.7774 28.2742C45.9381 34.7211 44.13 41.1775 42.2953 47.6258C41.779 49.442 40.5777 50.549 38.7346 50.9252C38.5081 50.9713 38.2728 50.976 38.0421 51C37.3217 51.0037 36.6534 50.7606 35.9768 50.5673C32.9543 49.703 29.9332 48.8344 26.9116 47.9663C21.8429 46.5103 16.7746 45.0534 11.7059 43.5984C8.87723 42.7867 6.04765 41.9793 3.21993 41.1662C1.18815 40.5816 -0.178636 38.5454 0.0189497 36.423C0.0944424 35.6128 0.375909 34.8561 0.595397 34.0844C2.34664 27.9206 4.10581 21.7591 5.86358 15.5972C6.25828 14.2132 7.08125 13.1786 8.33154 12.4774C12.2986 10.2521 16.2606 8.01836 20.2244 5.78788C23.2549 4.08269 26.2955 2.39536 29.3115 0.665246C31.1597 -0.39521 33.2222 -0.134211 34.6543 1.0678C35.1492 1.48351 35.5294 1.9914 35.8337 2.56419C38.571 7.71645 41.3121 12.8664 44.0522 18.0172C45.151 20.0831 46.2541 22.1466 47.3464 24.2158C48.0277 25.5072 48.1852 26.8451 47.7774 28.2742Z" fill="#FDFDFD"/>
</g>
<mask id="mask1_0_1" style="mask-type:alpha" maskUnits="userSpaceOnUse" x="0" y="0" width="48" height="51">
<path fill-rule="evenodd" clip-rule="evenodd" d="M0 0H48V51H0V0Z" fill="white"/>
</mask>
<g mask="url(#mask1_0_1)">
<path fill-rule="evenodd" clip-rule="evenodd" d="M42.2953 47.6258C41.779 49.442 40.5777 50.549 38.7346 50.9252C38.5081 50.9713 38.2728 50.976 38.0421 51C37.3217 51.0037 36.6534 50.7606 35.9768 50.5673C32.9543 49.703 29.9332 48.8344 26.9116 47.9663C21.8429 46.5103 16.7746 45.0534 11.7059 43.5984C8.87723 42.7867 6.04765 41.9793 3.21993 41.1662C1.18815 40.5816 -0.178636 38.5454 0.0189497 36.423C0.0944424 35.6128 0.375909 34.8561 0.595397 34.0844C2.34664 27.9206 4.10581 21.7591 5.86358 15.5972C6.25828 14.2132 7.08125 13.1786 8.33154 12.4774C12.2986 10.2521 16.2606 8.01836 20.2244 5.78788C23.2549 4.08269 26.2955 2.39536 29.3115 0.665246C31.1597 -0.39521 33.2222 -0.134211 34.6543 1.0678C35.1492 1.48351 35.5294 1.9914 35.8337 2.56419C38.571 7.71645 41.3121 12.8664 44.0522 18.0172C45.151 20.0831 46.2541 22.1466 47.3464 24.2158C48.0277 25.5072 48.1852 26.8451 47.7774 28.2742C45.9381 34.7211 44.13 41.1775 42.2953 47.6258Z" fill="#009FE1"/>
</g>
<path fill-rule="evenodd" clip-rule="evenodd" d="M22.005 22.4004C22.005 21.9339 22.005 21.4835 22.005 21.033C22.005 20.4223 22.0063 19.8116 22.004 19.2009C22.0036 19.0967 22.0186 19.0071 22.0843 18.918C23.3804 17.1604 24.6733 15.4005 25.967 13.641C25.9808 13.6223 25.9958 13.6046 26.0381 13.5514V22.4262C26.0531 22.433 26.0681 22.4397 26.0832 22.4465C26.1475 22.3563 26.2133 22.2672 26.276 22.1759C26.983 21.1472 27.6791 20.1097 28.5243 19.1873C29.408 18.2229 30.4123 17.4499 31.7181 17.1594C34.6857 16.4991 37.5815 18.391 38.2038 21.3976C38.296 21.8434 38.3413 22.2927 38.3407 22.7484C38.3344 27.6732 38.3304 32.5979 38.3252 37.5226C38.3249 37.8514 38.3162 38.1803 38.3199 38.509C38.3214 38.6313 38.2999 38.6899 38.1571 38.6893C36.9391 38.684 35.7211 38.6827 34.5031 38.6905C34.335 38.6915 34.3394 38.6098 34.3395 38.4907C34.3406 37.3006 34.3388 36.1105 34.3377 34.9205C34.3339 31.1467 34.3304 27.3729 34.3256 23.5991C34.3251 23.2466 34.3097 22.8957 34.2046 22.5544C33.9852 21.8417 33.4319 21.3802 32.6986 21.3166C32.4342 21.2937 32.197 21.3956 31.9718 21.5241C31.4387 21.8285 31.003 22.2522 30.5853 22.6949C29.3682 23.9846 28.3253 25.4168 27.2698 26.8383C26.9025 27.333 26.5457 27.8356 26.1764 28.3286C26.087 28.448 26.0497 28.566 26.0498 28.7146C26.053 31.9482 26.0498 35.1818 26.0577 38.4153C26.0582 38.6399 26.0082 38.7004 25.781 38.6979C24.6019 38.6851 23.4226 38.6875 22.2434 38.6965C22.056 38.6979 22.0131 38.6415 22.0138 38.4602C22.0197 37.0822 22.015 35.7042 22.0137 34.3262C22.0136 34.2431 22.0137 34.1601 22.0137 34.0102C21.8631 34.2368 21.7527 34.4108 21.6346 34.5793C20.7023 35.9081 19.6258 37.0921 18.1995 37.892C16.2667 38.976 14.2906 39.0045 12.3351 37.9769C11.298 37.4318 10.7008 36.4719 10.2749 35.4013C9.82346 34.2668 9.61361 33.0755 9.4843 31.868C9.25866 29.7613 9.25884 27.648 9.3513 25.5349C9.42353 23.8842 9.57074 22.2406 10.092 20.6582C10.3761 19.7956 10.7798 19 11.4319 18.3537C12.2706 17.5226 13.3126 17.1975 14.4526 17.0716C16.2609 16.8721 17.6849 17.6672 18.9824 18.8007C20.1109 19.7865 21.0296 20.9556 21.8466 22.2101C21.8867 22.2717 21.9087 22.3503 22.005 22.4004Z" fill="#FEFEFE"/>
<path fill-rule="evenodd" clip-rule="evenodd" d="M13.2031 28.0293C13.2015 26.662 13.1957 25.4565 13.3006 24.2543C13.3537 23.6463 13.4264 23.0409 13.6345 22.4625C14.0252 21.3767 15.0002 20.9966 16.0142 21.5421C16.6969 21.9094 17.2258 22.4625 17.722 23.0459C18.9238 24.459 19.886 26.0364 20.7928 27.6507C20.9379 27.909 21.0715 28.1738 21.218 28.4313C21.2747 28.5311 21.279 28.6103 21.214 28.7101C20.1216 30.3868 18.964 32.0115 17.504 33.39C16.9819 33.8829 16.4245 34.3324 15.7287 34.5614C14.8411 34.8535 14.0801 34.5019 13.719 33.6333C13.4452 32.975 13.3665 32.2745 13.3067 31.574C13.2015 30.341 13.1963 29.1041 13.2031 28.0293Z" fill="#009FE1"/>
<path fill-rule="evenodd" clip-rule="evenodd" d="M90.9533 17.2353V23.9901C90.9533 24.8103 90.2749 25.4749 89.438 25.4749H86.15C85.3129 25.4749 84.6342 24.81 84.6342 23.9896V17.2353H81.0375V23.9901C81.0375 26.757 83.3261 29 86.1495 29H89.438C92.2614 29 94.55 26.757 94.55 23.9901V17.2353H90.9533Z" fill="black"/>
<path fill-rule="evenodd" clip-rule="evenodd" d="M101.084 29V22.2452C101.084 21.425 101.763 20.7603 102.599 20.7603H105.889C106.725 20.7603 107.403 21.425 107.403 22.2449V29H111V22.2452C111 19.4783 108.711 17.2353 105.888 17.2353H102.599C99.7761 17.2353 97.4875 19.4783 97.4875 22.2452V29H101.084Z" fill="#161616"/>
<path fill-rule="evenodd" clip-rule="evenodd" d="M73.9342 23.9912C73.9342 24.8098 73.2581 25.476 72.4268 25.476H67.5783V20.7621H72.4268C73.2581 20.7621 73.9342 21.4281 73.9342 22.2469V23.9912ZM77.5125 14.0088C77.5125 11.2468 75.231 9 72.4268 9H64V12.5243H72.4268C73.2581 12.5243 73.9342 13.1902 73.9342 14.0088V15.7534C73.9342 16.5719 73.2581 17.2379 72.4268 17.2379H64V25.476V29H72.4268C75.231 29 77.5125 26.7532 77.5125 23.9912V22.2469C77.5125 21.0089 77.0532 19.8751 76.2947 19.0001C77.0532 18.1249 77.5125 16.9913 77.5125 15.7534V14.0088Z" fill="black"/>
<path fill-rule="evenodd" clip-rule="evenodd" d="M81.0375 12.5294H111V9H81.0375V12.5294Z" fill="#009FE3"/>
<path d="M65.631 40.305H67.983V41.215H65.631V40.305ZM65.715 43H64.581V38.1H68.284V39.01H65.715V43ZM69.5062 43V38.1H71.6272C72.0659 38.1 72.4439 38.1723 72.7612 38.317C73.0786 38.457 73.3236 38.66 73.4962 38.926C73.6689 39.192 73.7552 39.5093 73.7552 39.878C73.7552 40.242 73.6689 40.557 73.4962 40.823C73.3236 41.0843 73.0786 41.285 72.7612 41.425C72.4439 41.565 72.0659 41.635 71.6272 41.635H70.1362L70.6402 41.138V43H69.5062ZM72.6212 43L71.3962 41.222H72.6072L73.8462 43H72.6212ZM70.6402 41.264L70.1362 40.732H71.5642C71.9142 40.732 72.1756 40.6573 72.3482 40.508C72.5209 40.354 72.6072 40.144 72.6072 39.878C72.6072 39.6073 72.5209 39.3973 72.3482 39.248C72.1756 39.0987 71.9142 39.024 71.5642 39.024H70.1362L70.6402 38.485V41.264ZM74.4643 43L76.6483 38.1H77.7683L79.9593 43H78.7693L76.9773 38.674H77.4253L75.6263 43H74.4643ZM75.5563 41.95L75.8573 41.089H78.3773L78.6853 41.95H75.5563ZM80.9222 43V38.1H81.8602L84.7512 41.628H84.2962V38.1H85.4162V43H84.4852L81.5872 39.472H82.0422V43H80.9222ZM89.375 43.084C88.997 43.084 88.6447 43.0233 88.318 42.902C87.996 42.776 87.716 42.5987 87.478 42.37C87.24 42.1413 87.0534 41.873 86.918 41.565C86.7874 41.257 86.722 40.9187 86.722 40.55C86.722 40.1813 86.7874 39.843 86.918 39.535C87.0534 39.227 87.24 38.9587 87.478 38.73C87.7207 38.5013 88.003 38.3263 88.325 38.205C88.647 38.079 88.9994 38.016 89.382 38.016C89.8067 38.016 90.1894 38.0907 90.53 38.24C90.8754 38.3847 91.1647 38.5993 91.398 38.884L90.67 39.556C90.502 39.3647 90.3154 39.2223 90.11 39.129C89.9047 39.031 89.6807 38.982 89.438 38.982C89.2094 38.982 88.9994 39.0193 88.808 39.094C88.6167 39.1687 88.451 39.276 88.311 39.416C88.171 39.556 88.0614 39.7217 87.982 39.913C87.9074 40.1043 87.87 40.3167 87.87 40.55C87.87 40.7833 87.9074 40.9957 87.982 41.187C88.0614 41.3783 88.171 41.544 88.311 41.684C88.451 41.824 88.6167 41.9313 88.808 42.006C88.9994 42.0807 89.2094 42.118 89.438 42.118C89.6807 42.118 89.9047 42.0713 90.11 41.978C90.3154 41.88 90.502 41.733 90.67 41.537L91.398 42.209C91.1647 42.4937 90.8754 42.7107 90.53 42.86C90.1894 43.0093 89.8044 43.084 89.375 43.084ZM95.9784 38.1H97.1124V43H95.9784V38.1ZM93.7524 43H92.6184V38.1H93.7524V43ZM96.0624 40.991H93.6684V40.032H96.0624V40.991ZM98.7262 43V38.1H99.8602V43H98.7262ZM103.088 43.084C102.696 43.084 102.32 43.0327 101.961 42.93C101.601 42.8227 101.312 42.685 101.093 42.517L101.478 41.663C101.688 41.8123 101.935 41.936 102.22 42.034C102.509 42.1273 102.801 42.174 103.095 42.174C103.319 42.174 103.498 42.153 103.634 42.111C103.774 42.0643 103.876 42.0013 103.942 41.922C104.007 41.8427 104.04 41.7517 104.04 41.649C104.04 41.5183 103.988 41.4157 103.886 41.341C103.783 41.2617 103.648 41.1987 103.48 41.152C103.312 41.1007 103.125 41.054 102.92 41.012C102.719 40.9653 102.516 40.9093 102.311 40.844C102.11 40.7787 101.926 40.6947 101.758 40.592C101.59 40.4893 101.452 40.354 101.345 40.186C101.242 40.018 101.191 39.8033 101.191 39.542C101.191 39.262 101.265 39.0077 101.415 38.779C101.569 38.5457 101.797 38.3613 102.101 38.226C102.409 38.086 102.794 38.016 103.256 38.016C103.564 38.016 103.867 38.0533 104.166 38.128C104.464 38.198 104.728 38.3053 104.957 38.45L104.607 39.311C104.378 39.1803 104.149 39.0847 103.921 39.024C103.692 38.9587 103.468 38.926 103.249 38.926C103.029 38.926 102.85 38.9517 102.71 39.003C102.57 39.0543 102.469 39.122 102.409 39.206C102.348 39.2853 102.318 39.3787 102.318 39.486C102.318 39.612 102.369 39.7147 102.472 39.794C102.574 39.8687 102.71 39.9293 102.878 39.976C103.046 40.0227 103.23 40.0693 103.431 40.116C103.636 40.1627 103.839 40.2163 104.04 40.277C104.245 40.3377 104.432 40.4193 104.6 40.522C104.768 40.6247 104.903 40.76 105.006 40.928C105.113 41.096 105.167 41.3083 105.167 41.565C105.167 41.8403 105.09 42.0923 104.936 42.321C104.782 42.5497 104.551 42.734 104.243 42.874C103.939 43.014 103.554 43.084 103.088 43.084ZM107.439 40.074H109.798V40.956H107.439V40.074ZM107.523 42.09H110.19V43H106.396V38.1H110.099V39.01H107.523V42.09Z" fill="black"/>
</svg>
