<svg width="62" height="85" viewBox="0 0 62 85" fill="none" xmlns="http://www.w3.org/2000/svg">
<path fill-rule="evenodd" clip-rule="evenodd" d="M27.8832 54.659C27.6174 54.9221 27.3432 55.1895 27.2643 55.6113C27.7254 55.8536 28.2156 55.7199 28.6808 55.7283C30.0267 55.7533 31.3727 55.7241 32.7186 55.7575C33.4206 55.7742 33.9316 56.1334 33.9357 56.8936C33.9357 57.6914 33.4414 58.0799 32.6646 58.084C30.8368 58.0924 29.0048 58.1425 27.1812 58.0673C26.2881 58.0297 26.1759 58.4433 26.1468 59.1659C26.1177 59.9929 26.5124 60.1349 27.2186 60.1224C28.9425 60.0848 30.6706 60.1098 32.3946 60.114C33.1797 60.114 33.8776 60.2811 33.9399 61.2501C33.9856 61.9894 33.3749 62.4531 32.3364 62.4614C30.6831 62.4739 29.0298 62.4656 27.256 62.4656C28.3319 64.7044 31.3602 66.0368 33.8734 65.4938C34.2099 65.4228 34.5381 65.3101 34.8704 65.2265C35.5558 65.0594 36.1499 65.1806 36.3825 65.9199C36.6193 66.6843 36.2496 67.2105 35.5351 67.457C33.2005 68.2548 30.8949 68.1127 28.7057 67.01C27.0026 66.158 25.6359 64.8882 24.8341 63.113C24.589 62.5784 24.2526 62.4197 23.7084 62.4572C23.16 62.4948 22.5992 62.5032 22.0551 62.4405C21.3821 62.3654 20.8421 62.0479 20.8462 61.271C20.8504 60.5025 21.3447 60.1808 22.0509 60.1224C22.2586 60.1057 22.4705 60.0848 22.674 60.1098C23.5713 60.2351 23.8745 59.8885 23.8247 58.957C23.7873 58.2678 23.6004 58.0172 22.9316 58.084C22.5909 58.1175 22.242 58.1049 21.8972 58.0673C21.2616 58.0005 20.8836 57.6121 20.8504 56.9813C20.8171 56.3548 21.1453 55.9371 21.7767 55.7993C21.8141 55.7909 21.8473 55.77 21.8806 55.7784C23.8704 56.1668 24.7594 54.9639 25.8851 53.5062C28.2073 50.5072 31.4516 49.6008 35.157 50.5824C35.9463 50.7912 36.6816 51.0669 36.4365 52.086C36.1706 53.1846 35.3232 53.0342 34.5173 52.8253C31.9542 52.1612 29.7484 52.7919 27.8832 54.659Z" fill="#479DDB"/>
<path fill-rule="evenodd" clip-rule="evenodd" d="M43.5192 81.4538C39.3402 81.4747 35.1653 81.458 30.9863 81.4538C26.7741 81.4538 22.5618 81.4831 18.3496 81.4496C10.0456 81.3828 3.61505 75.0005 3.49873 66.7094C3.46965 64.5708 3.88922 62.5033 4.75742 60.536C9.48892 49.864 14.2287 39.1921 18.927 28.5034C19.2843 27.6931 19.7163 27.4801 20.5429 27.4843C27.5509 27.5135 34.563 27.5177 41.5709 27.4801C42.3477 27.4801 42.7175 27.7265 43.029 28.4282C47.7356 39.1127 52.5252 49.7596 57.182 60.4691C61.5853 70.5939 54.5109 81.3953 43.5192 81.4538ZM13.6804 4.45707C13.427 3.72194 13.5225 3.52563 14.3284 3.5298C19.8866 3.55904 25.4489 3.54651 31.0071 3.54651C36.4946 3.54651 41.9863 3.55904 47.478 3.5298C48.3338 3.52563 48.6163 3.59663 48.2798 4.57403C46.157 10.7308 44.0883 16.9042 42.0362 23.0818C41.8202 23.7292 41.5792 24.03 40.8357 24.0133C38.2809 23.9631 35.722 23.9631 33.1714 24.0133C32.3821 24.0258 32.1702 23.7752 32.191 23.0066C32.2408 21.1688 32.2076 19.3268 32.2076 17.489C32.2076 17.2425 32.2201 17.0003 32.1993 16.758C32.1287 16.0396 31.8628 15.4423 31.0403 15.4214C30.1555 15.4005 29.8149 16.0103 29.8024 16.7789C29.7692 18.8256 29.7442 20.8764 29.8066 22.9231C29.8356 23.8044 29.5532 24.03 28.7016 24.0133C26.1842 23.959 23.6627 23.9757 21.1411 24.0091C20.4889 24.0174 20.194 23.8169 19.978 23.1654C17.9093 16.9209 15.8031 10.6848 13.6804 4.45707ZM59.9694 57.9505C55.5328 48.0596 51.1793 38.1228 46.7801 28.211C46.5683 27.7349 46.4894 27.455 46.9754 27.0206C47.9641 26.1226 47.6525 24.4811 46.4021 24.1803C45.3761 23.9339 45.6129 23.4953 45.8372 22.8354C47.8228 16.9209 49.796 11.0023 51.7734 5.08361C52.0018 4.38607 52.222 3.70106 52.0725 2.94922C51.711 1.09886 50.3236 0.00868793 48.2465 0.00868793C42.5181 -0.00384274 36.7854 0.00451104 31.0569 0.00451104C25.2578 0.00451104 19.4587 -0.00801962 13.6596 0.00868793C11.4746 0.0128648 9.95418 1.43301 9.87525 3.45044C9.84617 4.20228 10.1328 4.87894 10.3654 5.56395C12.3095 11.3824 14.2578 17.2008 16.2268 23.015C16.4304 23.6123 16.5343 23.9381 15.7076 24.1427C14.424 24.456 13.9836 26.0265 14.9432 26.9246C15.5165 27.4634 15.3794 27.8268 15.1343 28.3865C10.6438 38.5279 6.15319 48.6694 1.6917 58.8234C-1.58587 66.2875 -0.00316286 74.6998 5.59239 79.9C9.25629 83.3084 13.589 84.9917 18.5698 84.9958C26.5414 85.0042 34.5173 84.9958 42.4931 85C43.7352 85 44.969 84.9415 46.211 84.812C53.2314 84.056 59.7617 78.2293 61.4482 71.3123C62.5823 66.6509 61.9093 62.2736 59.9694 57.9505Z" fill="#479DDB"/>
<path fill-rule="evenodd" clip-rule="evenodd" d="M27.8832 54.659C27.6174 54.9221 27.3432 55.1895 27.2643 55.6113C27.7254 55.8536 28.2156 55.7199 28.6808 55.7283C30.0267 55.7533 31.3727 55.7241 32.7186 55.7575C33.4206 55.7742 33.9316 56.1334 33.9357 56.8936C33.9357 57.6914 33.4414 58.0799 32.6646 58.084C30.8368 58.0924 29.0048 58.1425 27.1812 58.0673C26.2881 58.0297 26.1759 58.4433 26.1468 59.1659C26.1177 59.9929 26.5124 60.1349 27.2186 60.1224C28.9425 60.0848 30.6706 60.1098 32.3946 60.114C33.1797 60.114 33.8776 60.2811 33.9399 61.2501C33.9856 61.9894 33.3749 62.4531 32.3364 62.4614C30.6831 62.4739 29.0298 62.4656 27.256 62.4656C28.3319 64.7044 31.3602 66.0368 33.8734 65.4938C34.2099 65.4228 34.5381 65.3101 34.8704 65.2265C35.5558 65.0594 36.1499 65.1806 36.3825 65.9199C36.6193 66.6843 36.2496 67.2105 35.5351 67.457C33.2005 68.2548 30.8949 68.1127 28.7057 67.01C27.0026 66.158 25.6359 64.8882 24.8341 63.113C24.589 62.5784 24.2526 62.4197 23.7084 62.4572C23.16 62.4948 22.5992 62.5032 22.0551 62.4405C21.3821 62.3654 20.8421 62.0479 20.8462 61.271C20.8504 60.5025 21.3447 60.1808 22.0509 60.1224C22.2586 60.1057 22.4705 60.0848 22.674 60.1098C23.5713 60.2351 23.8745 59.8885 23.8247 58.957C23.7873 58.2678 23.6004 58.0172 22.9316 58.084C22.5909 58.1175 22.242 58.1049 21.8972 58.0673C21.2616 58.0005 20.8836 57.6121 20.8504 56.9813C20.8171 56.3548 21.1453 55.9371 21.7767 55.7993C21.8141 55.7909 21.8473 55.77 21.8806 55.7784C23.8704 56.1668 24.7594 54.9639 25.8851 53.5062C28.2073 50.5072 31.4516 49.6008 35.157 50.5824C35.9463 50.7912 36.6816 51.0669 36.4365 52.086C36.1706 53.1846 35.3232 53.0342 34.5173 52.8253C31.9542 52.1612 29.7484 52.7919 27.8832 54.659Z" fill="#FEFEFE"/>
<path fill-rule="evenodd" clip-rule="evenodd" d="M43.5192 81.4538C39.3402 81.4747 35.1653 81.458 30.9863 81.4538C26.7741 81.4538 22.5618 81.4831 18.3496 81.4496C10.0456 81.3828 3.61505 75.0005 3.49873 66.7094C3.46965 64.5708 3.88922 62.5033 4.75742 60.536C9.48892 49.864 14.2287 39.1921 18.927 28.5034C19.2843 27.6931 19.7163 27.4801 20.5429 27.4843C27.5509 27.5135 34.563 27.5177 41.5709 27.4801C42.3477 27.4801 42.7175 27.7265 43.029 28.4282C47.7356 39.1127 52.5252 49.7596 57.182 60.4691C61.5853 70.5939 54.5109 81.3953 43.5192 81.4538ZM13.6804 4.45707C13.427 3.72194 13.5225 3.52563 14.3284 3.5298C19.8866 3.55904 25.4489 3.54651 31.0071 3.54651C36.4946 3.54651 41.9863 3.55904 47.478 3.5298C48.3338 3.52563 48.6163 3.59663 48.2798 4.57403C46.157 10.7308 44.0883 16.9042 42.0362 23.0818C41.8202 23.7292 41.5792 24.03 40.8357 24.0133C38.2809 23.9631 35.722 23.9631 33.1714 24.0133C32.3821 24.0258 32.1702 23.7752 32.191 23.0066C32.2408 21.1688 32.2076 19.3268 32.2076 17.489C32.2076 17.2425 32.2201 17.0003 32.1993 16.758C32.1287 16.0396 31.8628 15.4423 31.0403 15.4214C30.1555 15.4005 29.8149 16.0103 29.8024 16.7789C29.7692 18.8256 29.7442 20.8764 29.8066 22.9231C29.8356 23.8044 29.5532 24.03 28.7016 24.0133C26.1842 23.959 23.6627 23.9757 21.1411 24.0091C20.4889 24.0174 20.194 23.8169 19.978 23.1654C17.9093 16.9209 15.8031 10.6848 13.6804 4.45707ZM59.9694 57.9505C55.5328 48.0596 51.1793 38.1228 46.7801 28.211C46.5683 27.7349 46.4894 27.455 46.9754 27.0206C47.9641 26.1226 47.6525 24.4811 46.4021 24.1803C45.3761 23.9339 45.6129 23.4953 45.8372 22.8354C47.8228 16.9209 49.796 11.0023 51.7734 5.08361C52.0018 4.38607 52.222 3.70106 52.0725 2.94922C51.711 1.09886 50.3236 0.00868793 48.2465 0.00868793C42.5181 -0.00384274 36.7854 0.00451104 31.0569 0.00451104C25.2578 0.00451104 19.4587 -0.00801962 13.6596 0.00868793C11.4746 0.0128648 9.95418 1.43301 9.87525 3.45044C9.84617 4.20228 10.1328 4.87894 10.3654 5.56395C12.3095 11.3824 14.2578 17.2008 16.2268 23.015C16.4304 23.6123 16.5343 23.9381 15.7076 24.1427C14.424 24.456 13.9836 26.0265 14.9432 26.9246C15.5165 27.4634 15.3794 27.8268 15.1343 28.3865C10.6438 38.5279 6.15319 48.6694 1.6917 58.8234C-1.58587 66.2875 -0.00316286 74.6998 5.59239 79.9C9.25629 83.3084 13.589 84.9917 18.5698 84.9958C26.5414 85.0042 34.5173 84.9958 42.4931 85C43.7352 85 44.969 84.9415 46.211 84.812C53.2314 84.056 59.7617 78.2293 61.4482 71.3123C62.5823 66.6509 61.9093 62.2736 59.9694 57.9505Z" fill="#FEFEFE"/>
<path fill-rule="evenodd" clip-rule="evenodd" d="M36.3825 65.9199C36.6193 66.6843 36.2496 67.2105 35.5351 67.457C33.2005 68.2548 30.8949 68.1127 28.7057 67.01C27.0026 66.158 25.6359 64.8882 24.8341 63.113C24.589 62.5784 24.2526 62.4197 23.7084 62.4572C23.16 62.4948 22.5992 62.5032 22.0551 62.4405C21.3821 62.3654 20.8421 62.0479 20.8462 61.271C20.8504 60.5025 21.3447 60.1808 22.0509 60.1224C22.2586 60.1057 22.4705 60.0848 22.674 60.1098C23.5713 60.2351 23.8745 59.8885 23.8247 58.957C23.7873 58.2678 23.6004 58.0172 22.9316 58.084C22.5909 58.1175 22.242 58.1049 21.8972 58.0673C21.2616 58.0005 20.8836 57.6121 20.8504 56.9813C20.8171 56.3548 21.1453 55.9371 21.7767 55.7993C21.8141 55.7909 21.8473 55.77 21.8806 55.7784C23.8704 56.1668 24.7594 54.9639 25.8851 53.5062C28.2073 50.5072 31.4516 49.6008 35.157 50.5824C35.9463 50.7912 36.6816 51.0669 36.4365 52.086C36.1706 53.1846 35.3232 53.0342 34.5173 52.8253C31.9542 52.1612 29.7484 52.7919 27.8832 54.659C27.6174 54.9221 27.3432 55.1895 27.2643 55.6113C27.7254 55.8536 28.2156 55.7199 28.6808 55.7283C30.0267 55.7533 31.3727 55.7241 32.7186 55.7575C33.4206 55.7742 33.9316 56.1334 33.9357 56.8936C33.9357 57.6914 33.4414 58.0799 32.6646 58.084C30.8368 58.0924 29.0048 58.1425 27.1812 58.0673C26.2881 58.0297 26.1759 58.4433 26.1468 59.1659C26.1177 59.9929 26.5124 60.1349 27.2186 60.1224C28.9425 60.0848 30.6706 60.1098 32.3946 60.114C33.1797 60.114 33.8776 60.2811 33.9399 61.2501C33.9856 61.9894 33.3749 62.4531 32.3364 62.4614C30.6831 62.4739 29.0298 62.4656 27.256 62.4656C28.3319 64.7044 31.3602 66.0368 33.8734 65.4938C34.2099 65.4228 34.5381 65.3101 34.8704 65.2265C35.5558 65.0594 36.1499 65.1806 36.3825 65.9199Z" fill="#479DDB"/>
<path fill-rule="evenodd" clip-rule="evenodd" d="M36.3825 65.9199C36.6193 66.6843 36.2496 67.2105 35.5351 67.457C33.2005 68.2548 30.8949 68.1127 28.7057 67.01C27.0026 66.158 25.6359 64.8882 24.8341 63.113C24.589 62.5784 24.2526 62.4197 23.7084 62.4572C23.16 62.4948 22.5992 62.5032 22.0551 62.4405C21.3821 62.3654 20.8421 62.0479 20.8462 61.271C20.8504 60.5025 21.3447 60.1808 22.0509 60.1224C22.2586 60.1057 22.4705 60.0848 22.674 60.1098C23.5713 60.2351 23.8745 59.8885 23.8247 58.957C23.7873 58.2678 23.6004 58.0172 22.9316 58.084C22.5909 58.1175 22.242 58.1049 21.8972 58.0673C21.2616 58.0005 20.8836 57.6121 20.8504 56.9813C20.8171 56.3548 21.1453 55.9371 21.7767 55.7993C21.8141 55.7909 21.8473 55.77 21.8806 55.7784C23.8704 56.1668 24.7594 54.9639 25.8851 53.5062C28.2073 50.5072 31.4516 49.6008 35.157 50.5824C35.9463 50.7912 36.6816 51.0669 36.4365 52.086C36.1706 53.1846 35.3232 53.0342 34.5173 52.8253C31.9542 52.1612 29.7484 52.7919 27.8832 54.659C27.6174 54.9221 27.3432 55.1895 27.2643 55.6113C27.7254 55.8536 28.2156 55.7199 28.6808 55.7283C30.0267 55.7533 31.3727 55.7241 32.7186 55.7575C33.4206 55.7742 33.9316 56.1334 33.9357 56.8936C33.9357 57.6914 33.4414 58.0799 32.6646 58.084C30.8368 58.0924 29.0048 58.1425 27.1812 58.0673C26.2881 58.0297 26.1759 58.4433 26.1468 59.1659C26.1177 59.9929 26.5124 60.1349 27.2186 60.1224C28.9425 60.0848 30.6706 60.1098 32.3946 60.114C33.1797 60.114 33.8776 60.2811 33.9399 61.2501C33.9856 61.9894 33.3749 62.4531 32.3364 62.4614C30.6831 62.4739 29.0298 62.4656 27.256 62.4656C28.3319 64.7044 31.3602 66.0368 33.8734 65.4938C34.2099 65.4228 34.5381 65.3101 34.8704 65.2265C35.5558 65.0594 36.1499 65.1806 36.3825 65.9199Z" fill="#FEFEFE"/>
</svg>
