<svg width="79" height="79" viewBox="0 0 79 79" fill="none" xmlns="http://www.w3.org/2000/svg">
<path fill-rule="evenodd" clip-rule="evenodd" d="M17.6181 39.4556C17.6802 40.162 17.0863 40.7481 16.2983 40.8374C16.2362 40.8452 16.1703 40.8452 16.1043 40.8452H14.5633V40.8374C14.0199 40.8374 13.4687 40.8762 12.9292 40.8258C12.1607 40.7598 11.691 40.3134 11.6406 39.5255C11.5901 38.8074 12.1607 38.1825 12.9525 38.1514C14.0742 38.1087 15.1999 38.1087 16.3216 38.1553C17.1018 38.1902 17.5521 38.6871 17.6181 39.4556Z" fill="#479DDB"/>
<path fill-rule="evenodd" clip-rule="evenodd" d="M24.2322 55.3384C24.5194 55.8391 24.5155 56.3592 24.1196 56.7707C23.2928 57.6323 22.4428 58.4707 21.5578 59.2703C21.1464 59.643 20.6301 59.6701 20.1139 59.3945C19.6287 59.1345 19.4657 58.7036 19.4269 58.199C19.4579 57.415 22.206 54.6126 22.9707 54.5932C23.5413 54.5776 23.9527 54.8532 24.2322 55.3384Z" fill="#479DDB"/>
<path fill-rule="evenodd" clip-rule="evenodd" d="M40.8527 64.3823C40.8527 64.9606 40.8954 65.5429 40.8411 66.1134C40.7673 66.8936 40.2782 67.3594 39.5019 67.3555C38.7256 67.3516 38.2172 66.882 38.1822 66.1018C38.1279 64.949 38.1201 63.7884 38.1861 62.6356C38.2288 61.8749 38.7334 61.3858 39.5175 61.3897C40.3015 61.3936 40.7634 61.8865 40.8449 62.6512C40.9032 63.2217 40.8566 63.8039 40.8527 64.3823Z" fill="#479DDB"/>
<path fill-rule="evenodd" clip-rule="evenodd" d="M38.159 14.5404C38.159 14.0281 38.1318 13.5118 38.1628 12.9995C38.2133 12.1844 38.6441 11.6759 39.4787 11.6215C40.2045 11.5711 40.8178 12.1339 40.8488 12.9374C40.8915 14.0591 40.8954 15.1847 40.8449 16.3065C40.81 17.0828 40.3132 17.533 39.5408 17.599C38.846 17.6572 38.2249 17.0556 38.1706 16.2716C38.1279 15.6971 38.1628 15.1188 38.1628 14.5404H38.159Z" fill="#479DDB"/>
<path fill-rule="evenodd" clip-rule="evenodd" d="M55.9439 40.8412C54.073 40.8528 52.2022 40.8451 50.3313 40.8451C48.5885 40.8451 46.8496 40.8606 45.1068 40.8373C44.5711 40.8295 44.2529 40.946 44.0083 41.501C42.8943 44.0124 40.1113 45.1069 37.631 44.0822C35.1818 43.0692 33.9436 40.356 34.8674 37.8525C35.1003 37.2275 34.9955 36.886 34.5453 36.4396C29.8564 31.7779 25.1909 27.0969 20.5175 22.4158C20.2924 22.1868 20.0556 21.9656 19.8499 21.7172C19.3337 21.0884 19.2328 20.4013 19.8305 19.8036C20.4283 19.202 21.1308 19.3029 21.7363 19.8385C22.3147 20.3548 22.8464 20.9215 23.3937 21.4649C27.7332 25.7966 32.0766 30.1167 36.4006 34.46C36.8509 34.9142 37.1886 35.0966 37.8756 34.8249C40.1773 33.9244 42.9332 35.0694 43.9579 37.3595C44.2606 38.0349 44.6371 38.1474 45.2737 38.1436C48.6933 38.1203 52.1129 38.1358 55.5325 38.1358C55.9827 38.1358 56.4485 38.097 56.8367 38.3842C57.3141 38.7374 57.578 39.1993 57.3995 39.8087C57.1938 40.5307 56.6542 40.8334 55.9439 40.8412Z" fill="#479DDB"/>
<path fill-rule="evenodd" clip-rule="evenodd" d="M59.608 20.7546C59.5498 20.9486 59.5381 21.166 59.4294 21.3096C58.5988 22.4197 57.6478 23.4367 56.5261 24.244C55.9904 24.6361 55.3228 24.4459 54.8842 23.9102C54.4805 23.4056 54.4223 22.7691 54.8454 22.3033C55.6877 21.3756 56.5998 20.51 57.5275 19.6716C57.9428 19.299 58.4901 19.3301 58.9753 19.6212C59.3984 19.8735 59.542 20.2927 59.608 20.7546Z" fill="#479DDB"/>
<path fill-rule="evenodd" clip-rule="evenodd" d="M59.4683 57.745C59.5537 57.8692 59.5654 58.0478 59.6003 58.172C59.5421 58.6688 59.4256 59.0803 58.9792 59.3442C58.4785 59.647 57.9545 59.6896 57.5392 59.3131C56.6038 58.4747 55.6916 57.6053 54.8455 56.6815C54.3991 56.1924 54.5388 55.5908 54.9619 55.094C55.385 54.601 55.9944 54.3449 56.5106 54.7252C57.6518 55.5598 58.6454 56.5767 59.4683 57.745Z" fill="#479DDB"/>
<path fill-rule="evenodd" clip-rule="evenodd" d="M67.371 39.475C67.3865 40.3095 66.8625 40.7675 66.0474 40.8335C65.504 40.8762 64.9567 40.8413 64.4094 40.8413C63.866 40.8413 63.3187 40.8723 62.7753 40.8335C61.9602 40.7792 61.4206 40.3328 61.4129 39.5061C61.409 38.6832 61.9213 38.1864 62.7442 38.1514C63.8349 38.1048 64.9256 38.1126 66.0163 38.1475C66.8431 38.1708 67.3593 38.6483 67.371 39.475Z" fill="#479DDB"/>
<mask id="mask0_0_1122" style="mask-type:alpha" maskUnits="userSpaceOnUse" x="0" y="0" width="79" height="79">
<path fill-rule="evenodd" clip-rule="evenodd" d="M0 0H79V79H0V0Z" fill="white"/>
</mask>
<g mask="url(#mask0_0_1122)">
<path fill-rule="evenodd" clip-rule="evenodd" d="M39.4787 76.2597C19.26 76.3373 2.68988 59.7751 2.74422 39.5332C2.79856 19.0933 18.9805 2.927 39.4903 2.69023C59.9147 2.89206 76.2597 18.9614 76.2597 39.4905C76.2597 59.9575 59.9458 76.1821 39.4787 76.2597ZM39.5136 0.000364013C17.7928 -0.0850285 0.00776425 17.762 1.27106e-06 39.4827C-0.00388022 61.1996 17.7695 78.9806 39.4981 79C61.2072 79.0194 79.0621 61.2501 79 39.5099C78.9379 17.665 61.4285 0.0857565 39.5136 0.000364013Z" fill="#479DDB"/>
</g>
<path fill-rule="evenodd" clip-rule="evenodd" d="M17.6181 39.4556C17.6802 40.162 17.0863 40.7481 16.2983 40.8374C16.2362 40.8452 16.1703 40.8452 16.1043 40.8452H14.5633V40.8374C14.0199 40.8374 13.4687 40.8762 12.9292 40.8258C12.1607 40.7598 11.691 40.3134 11.6406 39.5255C11.5901 38.8074 12.1607 38.1825 12.9525 38.1514C14.0742 38.1087 15.1999 38.1087 16.3216 38.1553C17.1018 38.1902 17.5521 38.6871 17.6181 39.4556Z" fill="#FEFEFE"/>
<path fill-rule="evenodd" clip-rule="evenodd" d="M24.2322 55.3384C24.5194 55.8391 24.5155 56.3592 24.1196 56.7707C23.2928 57.6323 22.4428 58.4707 21.5578 59.2703C21.1464 59.643 20.6301 59.6701 20.1139 59.3945C19.6287 59.1345 19.4657 58.7036 19.4269 58.199C19.4579 57.415 22.206 54.6126 22.9707 54.5932C23.5413 54.5776 23.9527 54.8532 24.2322 55.3384Z" fill="#FEFEFE"/>
<path fill-rule="evenodd" clip-rule="evenodd" d="M40.8527 64.3823C40.8527 64.9606 40.8954 65.5429 40.8411 66.1134C40.7673 66.8936 40.2782 67.3594 39.5019 67.3555C38.7256 67.3516 38.2172 66.882 38.1822 66.1018C38.1279 64.949 38.1201 63.7884 38.1861 62.6356C38.2288 61.8749 38.7334 61.3858 39.5175 61.3897C40.3015 61.3936 40.7634 61.8865 40.8449 62.6512C40.9032 63.2217 40.8566 63.8039 40.8527 64.3823Z" fill="#FEFEFE"/>
<path fill-rule="evenodd" clip-rule="evenodd" d="M38.159 14.5404C38.159 14.0281 38.1318 13.5118 38.1628 12.9995C38.2133 12.1844 38.6441 11.6759 39.4787 11.6215C40.2045 11.5711 40.8178 12.1339 40.8488 12.9374C40.8915 14.0591 40.8954 15.1847 40.8449 16.3065C40.81 17.0828 40.3132 17.533 39.5408 17.599C38.846 17.6572 38.2249 17.0556 38.1706 16.2716C38.1279 15.6971 38.1628 15.1188 38.1628 14.5404H38.159Z" fill="#FEFEFE"/>
<path fill-rule="evenodd" clip-rule="evenodd" d="M55.9439 40.8412C54.073 40.8528 52.2022 40.8451 50.3313 40.8451C48.5885 40.8451 46.8496 40.8606 45.1068 40.8373C44.5711 40.8295 44.2529 40.946 44.0083 41.501C42.8943 44.0124 40.1113 45.1069 37.631 44.0822C35.1818 43.0692 33.9436 40.356 34.8674 37.8525C35.1003 37.2275 34.9955 36.886 34.5453 36.4396C29.8564 31.7779 25.1909 27.0969 20.5175 22.4158C20.2924 22.1868 20.0556 21.9656 19.8499 21.7172C19.3337 21.0884 19.2328 20.4013 19.8305 19.8036C20.4283 19.202 21.1308 19.3029 21.7363 19.8385C22.3147 20.3548 22.8464 20.9215 23.3937 21.4649C27.7332 25.7966 32.0766 30.1167 36.4006 34.46C36.8509 34.9142 37.1886 35.0966 37.8756 34.8249C40.1773 33.9244 42.9332 35.0694 43.9579 37.3595C44.2606 38.0349 44.6371 38.1474 45.2737 38.1436C48.6933 38.1203 52.1129 38.1358 55.5325 38.1358C55.9827 38.1358 56.4485 38.097 56.8367 38.3842C57.3141 38.7374 57.578 39.1993 57.3995 39.8087C57.1938 40.5307 56.6542 40.8334 55.9439 40.8412Z" fill="#FEFEFE"/>
<path fill-rule="evenodd" clip-rule="evenodd" d="M59.608 20.7546C59.5498 20.9486 59.5381 21.166 59.4294 21.3096C58.5988 22.4197 57.6478 23.4367 56.5261 24.244C55.9904 24.6361 55.3228 24.4459 54.8842 23.9102C54.4805 23.4056 54.4223 22.7691 54.8454 22.3033C55.6877 21.3756 56.5998 20.51 57.5275 19.6716C57.9428 19.299 58.4901 19.3301 58.9753 19.6212C59.3984 19.8735 59.542 20.2927 59.608 20.7546Z" fill="#FEFEFE"/>
<path fill-rule="evenodd" clip-rule="evenodd" d="M59.4683 57.745C59.5537 57.8692 59.5654 58.0478 59.6003 58.172C59.5421 58.6688 59.4256 59.0803 58.9792 59.3442C58.4785 59.647 57.9545 59.6896 57.5392 59.3131C56.6038 58.4747 55.6916 57.6053 54.8455 56.6815C54.3991 56.1924 54.5388 55.5908 54.9619 55.094C55.385 54.601 55.9944 54.3449 56.5106 54.7252C57.6518 55.5598 58.6454 56.5767 59.4683 57.745Z" fill="#FEFEFE"/>
<path fill-rule="evenodd" clip-rule="evenodd" d="M67.371 39.475C67.3865 40.3095 66.8625 40.7675 66.0474 40.8335C65.504 40.8762 64.9567 40.8413 64.4094 40.8413C63.866 40.8413 63.3187 40.8723 62.7753 40.8335C61.9602 40.7792 61.4206 40.3328 61.4129 39.5061C61.409 38.6832 61.9213 38.1864 62.7442 38.1514C63.8349 38.1048 64.9256 38.1126 66.0163 38.1475C66.8431 38.1708 67.3593 38.6483 67.371 39.475Z" fill="#FEFEFE"/>
<mask id="mask1_0_1122" style="mask-type:alpha" maskUnits="userSpaceOnUse" x="0" y="0" width="79" height="79">
<path fill-rule="evenodd" clip-rule="evenodd" d="M0 0H79V79H0V0Z" fill="white"/>
</mask>
<g mask="url(#mask1_0_1122)">
<path fill-rule="evenodd" clip-rule="evenodd" d="M39.4787 76.2597C19.26 76.3373 2.68988 59.7751 2.74422 39.5332C2.79856 19.0933 18.9805 2.927 39.4903 2.69023C59.9147 2.89206 76.2597 18.9614 76.2597 39.4905C76.2597 59.9575 59.9458 76.1821 39.4787 76.2597ZM39.5136 0.000364013C17.7928 -0.0850285 0.00776425 17.762 1.27106e-06 39.4827C-0.00388022 61.1996 17.7695 78.9806 39.4981 79C61.2072 79.0194 79.0621 61.2501 79 39.5099C78.9379 17.665 61.4285 0.0857565 39.5136 0.000364013Z" fill="#FEFEFE"/>
</g>
<path fill-rule="evenodd" clip-rule="evenodd" d="M17.6181 39.4556C17.6802 40.162 17.0863 40.7481 16.2983 40.8374C16.2362 40.8452 16.1703 40.8452 16.1043 40.8452H14.5633V40.8374C14.0199 40.8374 13.4687 40.8762 12.9292 40.8258C12.1607 40.7598 11.691 40.3134 11.6406 39.5255C11.5901 38.8074 12.1607 38.1825 12.9525 38.1514C14.0742 38.1087 15.1999 38.1087 16.3216 38.1553C17.1018 38.1902 17.5521 38.6871 17.6181 39.4556Z" fill="#479DDB"/>
<path fill-rule="evenodd" clip-rule="evenodd" d="M24.2322 55.3384C24.5194 55.8391 24.5155 56.3592 24.1196 56.7707C23.2928 57.6323 22.4428 58.4707 21.5578 59.2703C21.1464 59.643 20.6301 59.6701 20.1139 59.3945C19.6287 59.1345 19.4657 58.7036 19.4269 58.199C19.4579 57.415 22.206 54.6126 22.9707 54.5932C23.5413 54.5776 23.9527 54.8532 24.2322 55.3384Z" fill="#479DDB"/>
<path fill-rule="evenodd" clip-rule="evenodd" d="M40.8527 64.3823C40.8527 64.9606 40.8954 65.5429 40.8411 66.1134C40.7673 66.8936 40.2782 67.3594 39.5019 67.3555C38.7256 67.3516 38.2172 66.882 38.1822 66.1018C38.1279 64.949 38.1201 63.7884 38.1861 62.6356C38.2288 61.8749 38.7334 61.3858 39.5175 61.3897C40.3015 61.3936 40.7634 61.8865 40.8449 62.6512C40.9032 63.2217 40.8566 63.8039 40.8527 64.3823Z" fill="#479DDB"/>
<path fill-rule="evenodd" clip-rule="evenodd" d="M38.159 14.5404C38.159 14.0281 38.1318 13.5118 38.1628 12.9995C38.2133 12.1844 38.6441 11.6759 39.4787 11.6215C40.2045 11.5711 40.8178 12.1339 40.8488 12.9374C40.8915 14.0591 40.8954 15.1847 40.8449 16.3065C40.81 17.0828 40.3132 17.533 39.5408 17.599C38.846 17.6572 38.2249 17.0556 38.1706 16.2716C38.1279 15.6971 38.1628 15.1188 38.1628 14.5404H38.159Z" fill="#479DDB"/>
<path fill-rule="evenodd" clip-rule="evenodd" d="M55.9439 40.8412C54.073 40.8528 52.2022 40.8451 50.3313 40.8451C48.5885 40.8451 46.8496 40.8606 45.1068 40.8373C44.5711 40.8295 44.2529 40.946 44.0083 41.501C42.8943 44.0124 40.1113 45.1069 37.631 44.0822C35.1818 43.0692 33.9436 40.356 34.8674 37.8525C35.1003 37.2275 34.9955 36.886 34.5453 36.4396C29.8564 31.7779 25.1909 27.0969 20.5175 22.4158C20.2924 22.1868 20.0556 21.9656 19.8499 21.7172C19.3337 21.0884 19.2328 20.4013 19.8305 19.8036C20.4283 19.202 21.1308 19.3029 21.7363 19.8385C22.3147 20.3548 22.8464 20.9215 23.3937 21.4649C27.7332 25.7966 32.0766 30.1167 36.4006 34.46C36.8509 34.9142 37.1886 35.0966 37.8756 34.8249C40.1773 33.9244 42.9332 35.0694 43.9579 37.3595C44.2606 38.0349 44.6371 38.1474 45.2737 38.1436C48.6933 38.1203 52.1129 38.1358 55.5325 38.1358C55.9827 38.1358 56.4485 38.097 56.8367 38.3842C57.3141 38.7374 57.578 39.1993 57.3995 39.8087C57.1938 40.5307 56.6542 40.8334 55.9439 40.8412Z" fill="#479DDB"/>
<path fill-rule="evenodd" clip-rule="evenodd" d="M59.608 20.7546C59.5498 20.9486 59.5381 21.166 59.4294 21.3096C58.5988 22.4197 57.6478 23.4367 56.5261 24.244C55.9904 24.6361 55.3228 24.4459 54.8842 23.9102C54.4805 23.4056 54.4223 22.7691 54.8454 22.3033C55.6877 21.3756 56.5998 20.51 57.5275 19.6716C57.9428 19.299 58.4901 19.3301 58.9753 19.6212C59.3984 19.8735 59.542 20.2927 59.608 20.7546Z" fill="#479DDB"/>
<path fill-rule="evenodd" clip-rule="evenodd" d="M59.4683 57.745C59.5537 57.8692 59.5654 58.0478 59.6003 58.172C59.5421 58.6688 59.4256 59.0803 58.9792 59.3442C58.4785 59.647 57.9545 59.6896 57.5392 59.3131C56.6038 58.4747 55.6916 57.6053 54.8455 56.6815C54.3991 56.1924 54.5388 55.5908 54.9619 55.094C55.385 54.601 55.9944 54.3449 56.5106 54.7252C57.6518 55.5598 58.6454 56.5767 59.4683 57.745Z" fill="#479DDB"/>
<path fill-rule="evenodd" clip-rule="evenodd" d="M67.371 39.475C67.3865 40.3095 66.8625 40.7675 66.0474 40.8335C65.504 40.8762 64.9567 40.8413 64.4094 40.8413C63.866 40.8413 63.3187 40.8723 62.7753 40.8335C61.9602 40.7792 61.4206 40.3328 61.4129 39.5061C61.409 38.6832 61.9213 38.1864 62.7442 38.1514C63.8349 38.1048 64.9256 38.1126 66.0163 38.1475C66.8431 38.1708 67.3593 38.6483 67.371 39.475Z" fill="#479DDB"/>
<path fill-rule="evenodd" clip-rule="evenodd" d="M57.3995 39.8087C57.1938 40.5307 56.6542 40.8334 55.9439 40.8412C54.073 40.8528 52.2022 40.8451 50.3313 40.8451C48.5885 40.8451 46.8496 40.8606 45.1068 40.8373C44.5711 40.8295 44.2529 40.946 44.0083 41.501C42.8943 44.0124 40.1113 45.1069 37.631 44.0822C35.1818 43.0692 33.9436 40.356 34.8674 37.8525C35.1003 37.2275 34.9955 36.886 34.5453 36.4396C29.8564 31.7779 25.1909 27.0969 20.5175 22.4158C20.2924 22.1868 20.0556 21.9656 19.8499 21.7172C19.3337 21.0884 19.2328 20.4013 19.8305 19.8036C20.4283 19.202 21.1308 19.3029 21.7363 19.8385C22.3147 20.3548 22.8464 20.9215 23.3937 21.4649C27.7332 25.7966 32.0766 30.1167 36.4006 34.46C36.8509 34.9142 37.1886 35.0966 37.8756 34.8249C40.1773 33.9244 42.9332 35.0694 43.9579 37.3595C44.2606 38.0349 44.6371 38.1474 45.2737 38.1436C48.6933 38.1203 52.1129 38.1358 55.5325 38.1358C55.9827 38.1358 56.4485 38.097 56.8367 38.3842C57.3141 38.7374 57.578 39.1993 57.3995 39.8087Z" fill="#FEFEFE"/>
<path fill-rule="evenodd" clip-rule="evenodd" d="M40.8449 16.3065C40.81 17.0828 40.3132 17.533 39.5408 17.599C38.846 17.6572 38.2249 17.0556 38.1706 16.2716C38.1279 15.6971 38.1628 15.1188 38.1628 14.5404H38.159C38.159 14.0281 38.1318 13.5118 38.1628 12.9995C38.2133 12.1844 38.6441 11.6759 39.4787 11.6215C40.2045 11.5711 40.8178 12.1339 40.8488 12.9374C40.8915 14.0591 40.8954 15.1847 40.8449 16.3065Z" fill="#FEFEFE"/>
<path fill-rule="evenodd" clip-rule="evenodd" d="M17.6181 39.4556C17.6802 40.162 17.0863 40.7481 16.2983 40.8374C16.2362 40.8452 16.1703 40.8452 16.1043 40.8452H14.5633V40.8374C14.0199 40.8374 13.4687 40.8762 12.9292 40.8258C12.1607 40.7598 11.691 40.3134 11.6406 39.5255C11.5901 38.8074 12.1607 38.1825 12.9525 38.1514C14.0742 38.1087 15.1999 38.1087 16.3216 38.1553C17.1018 38.1902 17.5521 38.6871 17.6181 39.4556Z" fill="#FEFEFE"/>
<path fill-rule="evenodd" clip-rule="evenodd" d="M67.371 39.475C67.3865 40.3095 66.8625 40.7675 66.0474 40.8335C65.504 40.8762 64.9567 40.8413 64.4094 40.8413C63.866 40.8413 63.3187 40.8723 62.7753 40.8335C61.9602 40.7792 61.4206 40.3328 61.4129 39.5061C61.409 38.6832 61.9213 38.1864 62.7442 38.1514C63.8349 38.1048 64.9256 38.1126 66.0163 38.1475C66.8431 38.1708 67.3593 38.6483 67.371 39.475Z" fill="#FEFEFE"/>
<path fill-rule="evenodd" clip-rule="evenodd" d="M40.8527 64.3823C40.8527 64.9606 40.8954 65.5429 40.8411 66.1134C40.7673 66.8936 40.2782 67.3594 39.5019 67.3555C38.7256 67.3516 38.2172 66.882 38.1822 66.1018C38.1279 64.949 38.1201 63.7884 38.1861 62.6356C38.2288 61.8749 38.7334 61.3858 39.5175 61.3897C40.3015 61.3936 40.7634 61.8865 40.8449 62.6512C40.9032 63.2217 40.8566 63.8039 40.8527 64.3823Z" fill="#FEFEFE"/>
<path fill-rule="evenodd" clip-rule="evenodd" d="M59.608 20.7546C59.5498 20.9486 59.5381 21.166 59.4294 21.3096C58.5988 22.4197 57.6478 23.4367 56.5261 24.244C55.9904 24.6361 55.3228 24.4459 54.8842 23.9102C54.4805 23.4056 54.4223 22.7691 54.8454 22.3033C55.6877 21.3756 56.5998 20.51 57.5275 19.6716C57.9428 19.299 58.4901 19.3301 58.9753 19.6212C59.3984 19.8735 59.542 20.2927 59.608 20.7546Z" fill="#FEFEFE"/>
<path fill-rule="evenodd" clip-rule="evenodd" d="M24.1196 56.7707C23.2928 57.6323 22.4428 58.4707 21.5578 59.2703C21.1464 59.643 20.6301 59.6701 20.1139 59.3945C19.6287 59.1345 19.4657 58.7036 19.4269 58.199C19.4579 57.415 22.206 54.6126 22.9707 54.5932C23.5413 54.5776 23.9527 54.8532 24.2322 55.3384C24.5194 55.8391 24.5155 56.3592 24.1196 56.7707Z" fill="#FEFEFE"/>
<path fill-rule="evenodd" clip-rule="evenodd" d="M59.6003 58.172C59.5421 58.6688 59.4256 59.0803 58.9792 59.3442C58.4785 59.647 57.9545 59.6896 57.5392 59.3131C56.6038 58.4747 55.6916 57.6053 54.8455 56.6815C54.3991 56.1924 54.5388 55.5908 54.9619 55.094C55.385 54.601 55.9944 54.3449 56.5106 54.7252C57.6518 55.5598 58.6454 56.5767 59.4683 57.745C59.5537 57.8692 59.5654 58.0478 59.6003 58.172Z" fill="#FEFEFE"/>
</svg>
