<svg width="33" height="33" viewBox="0 0 33 33" fill="none" xmlns="http://www.w3.org/2000/svg">
<mask id="mask0_0_1892" style="mask-type:alpha" maskUnits="userSpaceOnUse" x="0" y="0" width="33" height="33">
<path fill-rule="evenodd" clip-rule="evenodd" d="M0 0H33V33H0V0Z" fill="white"/>
</mask>
<g mask="url(#mask0_0_1892)">
<path fill-rule="evenodd" clip-rule="evenodd" d="M32.9998 4.29915C32.9998 5.67375 32.9998 7.04835 32.9985 8.42295C32.9985 9.17321 32.7428 9.43161 32.0017 9.43161H25.1433V9.81723C25.1433 11.9775 25.1446 14.1378 25.1433 16.2967C25.1433 17.0195 24.8796 17.287 24.1622 17.2883H17.2893V21.6207C17.2893 22.4943 17.2919 23.3665 17.288 24.24C17.2854 24.85 16.9942 25.1425 16.3843 25.1425C14.2241 25.1451 12.0638 25.1438 9.9036 25.1425H9.43273V25.5346C9.43273 27.6949 9.43404 29.8552 9.43273 32.0155C9.43273 32.7356 9.16909 32.9992 8.44508 32.9992C5.92415 32.9992 3.40454 33.0018 0.884923 32.9979C0.208129 32.9966 -0.193225 32.4129 0.0940186 31.8541C0.263217 31.5249 0.557019 31.4239 0.912467 31.4239C3.08319 31.4292 5.25392 31.4265 7.42464 31.4265H7.86141V31.0658C7.86141 28.8951 7.86141 26.7243 7.86272 24.5535C7.86272 23.8387 8.13029 23.5724 8.85168 23.5724C11.0119 23.5711 13.1721 23.5711 15.3324 23.5711H15.7167V16.7112C15.7167 15.9741 15.9803 15.7157 16.7266 15.7157C18.8646 15.7144 21.0025 15.7157 23.1404 15.7157H23.5719V8.86891C23.5733 8.12259 23.8316 7.86026 24.5675 7.86026H31.4272V7.47464C31.4272 5.28157 31.4259 3.08851 31.4272 0.89544C31.4285 0.290773 31.8496 -0.0922266 32.3755 0.019263C32.7651 0.101896 32.9959 0.406197 32.9972 0.862649C33.0012 2.00771 32.9998 3.15409 32.9998 4.29915Z" fill="white"/>
</g>
<path fill-rule="evenodd" clip-rule="evenodd" d="M23.1838 1.3191C22.3745 4.57459 21.5626 7.82878 20.7534 11.0843C20.6721 11.4109 20.5199 11.6798 20.1789 11.7781C19.83 11.8791 19.5467 11.7506 19.2962 11.4948C18.6417 10.8246 17.9793 10.1635 17.2933 9.47358C15.6669 11.1013 14.0799 12.691 12.4902 14.2807C8.88063 17.8904 5.27106 21.5013 1.66149 25.111C1.55394 25.2185 1.44901 25.33 1.33621 25.4323C1.02536 25.7117 0.646301 25.7445 0.389224 25.5189C0.044269 25.2146 -0.0357396 24.7831 0.197728 24.4342C0.263309 24.3358 0.349876 24.2492 0.435131 24.164C5.8403 18.7561 11.2481 13.3495 16.6546 7.94158C17.1373 7.4602 17.5439 7.46152 18.0357 7.95076C18.5289 8.44263 19.0155 8.94105 19.5611 9.49194C20.1894 6.97752 20.7993 4.52737 21.4249 2.02345C18.925 2.64648 16.4736 3.25639 13.9592 3.88204C14.4222 4.34243 14.8406 4.75429 15.2551 5.16877C15.8243 5.73671 15.8191 6.15906 15.2498 6.73224C12.5309 9.47489 9.81319 12.2175 7.09552 14.9602C7.0037 15.0533 6.91451 15.1491 6.81614 15.2356C6.47512 15.5386 6.05147 15.5242 5.73406 15.2041C5.43501 14.9038 5.42058 14.4788 5.72357 14.147C6.03967 13.8007 6.37675 13.4728 6.70466 13.1396C8.99211 10.8141 11.2809 8.48984 13.5683 6.1643C13.6287 6.10265 13.6864 6.03838 13.8136 5.90197C13.5133 5.62915 13.2129 5.36682 12.9243 5.09138C12.5781 4.75822 12.2423 4.41588 11.9052 4.07486C11.3793 3.54102 11.5616 2.87077 12.2921 2.68452C13.7284 2.31988 15.1659 1.96442 16.6021 1.60635C18.4305 1.14989 20.2576 0.693442 22.086 0.238303C22.9346 0.0271282 23.3923 0.478333 23.1838 1.3191Z" fill="white"/>
</svg>
