<svg width="25" height="24" viewBox="0 0 25 24" fill="none" xmlns="http://www.w3.org/2000/svg">
<path d="M19.9453 15.6666C19.9656 15.6666 19.9853 15.6645 20.0045 15.6613C22.069 15.5697 24 14.3078 24 12.1592C24 11.1765 23.6153 10.3169 23.0694 9.66322C22.38 8.67323 21.1571 8.01428 19.7623 8.01428C19.6412 8.01428 19.5211 8.01952 19.4021 8.02947C19.527 7.56695 19.5932 7.08086 19.5932 6.57958C19.5932 3.49803 17.0885 1 13.9996 1C10.9102 1 8.4061 3.49803 8.4061 6.57958C8.4061 6.69586 8.40984 6.8111 8.41677 6.92581C7.75727 6.66339 7.02519 6.51725 6.25417 6.51725C3.35256 6.51725 1 8.58733 1 11.1404C1 13.5352 2.32328 15.4188 4.8818 15.644C4.91915 15.6587 4.96024 15.6666 5.00292 15.6666" stroke="#00A1E2" stroke-width="2" stroke-linecap="round"/>
<path d="M5.36035 15.6666L8.8425 15.6614" stroke="#00A1E2" stroke-width="2" stroke-linecap="round"/>
<path d="M16.5654 15.734L19.514 15.6968" stroke="#00A1E2" stroke-width="2" stroke-linecap="round"/>
<path d="M12.4999 11.2581V22.9997L9.125 20.2832" stroke="#00A1E2" stroke-width="2" stroke-linecap="round" stroke-linejoin="round"/>
<path d="M16.0212 20.1001L12.7808 22.9999" stroke="#00A1E2" stroke-width="2" stroke-linecap="round"/>
</svg>
