<svg width="24" height="24" viewBox="0 0 24 24" fill="none" xmlns="http://www.w3.org/2000/svg">
<path d="M12 6C14.7616 6 17 8.16574 17 10.8372C17 11.9209 16.6316 12.9213 16.0097 13.7276" stroke="#00A1E2" stroke-linecap="round" stroke-linejoin="round"/>
<path fill-rule="evenodd" clip-rule="evenodd" d="M13.5625 10.8372C13.5625 11.6918 12.8628 12.3848 12 12.3848C11.1372 12.3848 10.4375 11.6918 10.4375 10.8372C10.4375 9.98261 11.1372 9.28958 12 9.28958C12.8628 9.28958 13.5625 9.98261 13.5625 10.8372V10.8372Z" stroke="#00A1E2" stroke-linecap="round" stroke-linejoin="round"/>
<path d="M12 19L16.0097 13.7276" stroke="#00A1E2" stroke-linecap="round" stroke-linejoin="round"/>
<path d="M12 6C9.23844 6 7 8.16574 7 10.8372C7 11.9209 7.36844 12.9213 7.99031 13.7276" stroke="#00A1E2" stroke-linecap="round" stroke-linejoin="round"/>
<path d="M11.9999 19L7.99023 13.7276" stroke="#00A1E2" stroke-linecap="round" stroke-linejoin="round"/>
</svg>
