<svg width="24" height="24" viewBox="0 0 24 24" fill="none" xmlns="http://www.w3.org/2000/svg">
<path fill-rule="evenodd" clip-rule="evenodd" d="M5.33325 12C5.33325 15.676 8.32392 18.6666 11.9999 18.6666C15.6759 18.6666 18.6666 15.676 18.6666 12C18.6666 8.32398 15.6759 5.33331 11.9999 5.33331C8.32392 5.33331 5.33325 8.32398 5.33325 12ZM6.66659 12C6.66659 9.05931 9.05925 6.66665 11.9999 6.66665C14.9406 6.66665 17.3333 9.05931 17.3333 12C17.3333 14.9406 14.9406 17.3333 11.9999 17.3333C9.05925 17.3333 6.66659 14.9406 6.66659 12ZM11.3333 8.66665V12.6666H15.3333V11.3333H12.6666V8.66665H11.3333Z" fill="#00A1E2"/>
</svg>
