<svg width="84" height="85" fill="none" xmlns="http://www.w3.org/2000/svg"><path fill-rule="evenodd" clip-rule="evenodd" d="M31.1 28.505c-.932-.021-1.868-.008-2.8-.008-.97 0-1.94-.021-2.905.008-.55.02-.82-.105-.808-.735.034-1.946.025-3.888.004-5.834-.004-.53.171-.743.716-.735 1.973.017 3.941.017 5.914 0 .508-.004.653.217.65.69-.017 1.979-.022 3.958.003 5.933.005.589-.287.69-.774.68zm4.125-9c-.013-1.072-.558-1.645-1.603-1.657a454.367 454.367 0 00-10.674 0c-1.15.012-1.686.635-1.694 1.8a841.502 841.502 0 000 10.297c.008 1.29.632 1.896 1.93 1.913 1.694.02 3.388.004 5.082.004 1.69 0 3.384.017 5.078-.004 1.206-.012 1.86-.568 1.872-1.741.046-3.537.046-7.074.009-10.611z" fill="#479DDB"/><mask id="a" style="mask-type:alpha" maskUnits="userSpaceOnUse" x="0" y="0" width="54" height="57"><path fill-rule="evenodd" clip-rule="evenodd" d="M0 0h53.25v56.755H0V0z" fill="#fff"/></mask><g mask="url(#a)"><path fill-rule="evenodd" clip-rule="evenodd" d="M.416 24.15c-.637-.744-.537-1.73.262-2.502.125-.117.27-.217.404-.326 2.484-1.996 4.965-3.992 7.45-5.984 1.593-1.277 3.179-2.572 4.794-3.82.486-.377.678-.773.67-1.391-.034-2.64-.021-5.279-.013-7.918.004-.94.296-1.741 1.311-1.983 1.17-.284 2.035.447 2.085 1.808.058 1.595.02 3.19.025 4.79.004.38 0 .76 0 1.156.441.063.633-.28.882-.471C21.13 5.24 23.96 2.96 26.797.685c1.136-.906 1.806-.923 2.96.004a18609.35 18609.35 0 0122.572 18.17c.995.797 1.186 1.791.558 2.61-.628.83-1.698.835-2.747-.005-6.97-5.587-13.941-11.17-20.892-16.787-.724-.584-1.16-.697-1.968-.037-5.31 4.338-10.675 8.606-16.04 12.874-.561.45-.807.898-.807 1.645.025 11.004.03 22.007-.004 33.015-.004.956.25 1.223 1.199 1.202 2.871-.062 5.743-.054 8.61-.004.845.017 1.032-.263 1.024-1.06-.038-3.642-.02-7.287-.017-10.933.005-1.687.55-2.246 2.24-2.255 3.216-.012 6.433-.012 9.65 0 1.486.008 2.098.593 2.106 2.075.017 4.51.017 9.025-.004 13.539-.004 1.34-.633 2.013-1.719 1.98-1.053-.03-1.627-.682-1.644-1.98-.029-1.975-.008-3.955-.008-5.934 0-1.808-.029-3.612.013-5.416.016-.702-.238-.89-.9-.877-1.764.033-3.528.054-5.289-.009-.849-.029-1.124.188-1.111 1.082.05 3.608.025 7.22.02 10.828-.003 1.888-.44 2.334-2.33 2.339-4.29.008-8.577.004-12.868-.005-1.873-.004-2.301-.447-2.301-2.36-.005-10.69-.005-21.384-.005-32.078v-1.44c-1.544 1.235-2.896 2.35-4.286 3.415-.924.71-1.736.635-2.393-.134z" fill="#479DDB"/></g><path fill-rule="evenodd" clip-rule="evenodd" d="M62.484 52.712c-2.938 0-5.352-2.434-5.327-5.37a5.31 5.31 0 015.298-5.29 5.325 5.325 0 015.356 5.328c.008 2.998-2.327 5.337-5.327 5.332zm.033-14.13c-4.757-.055-8.652 3.87-8.752 8.827-.1 4.702 3.825 8.678 8.66 8.774 4.683.092 8.707-3.846 8.836-8.644.129-4.748-3.924-8.9-8.744-8.958z" fill="#479DDB"/><mask id="b" style="mask-type:alpha" maskUnits="userSpaceOnUse" x="41" y="25" width="43" height="60"><path fill-rule="evenodd" clip-rule="evenodd" d="M41.015 25.806H84V85H41.015V25.806z" fill="#fff"/></mask><g mask="url(#b)"><path fill-rule="evenodd" clip-rule="evenodd" d="M78.457 56.83c-1.894 4.886-4.616 9.304-7.508 13.63-2.29 3.428-4.624 6.827-7.2 10.047-1.086 1.357-1.203 1.386-2.272.063-5.098-6.314-9.988-12.778-13.418-20.203-1.731-3.75-3.283-7.563-3.6-11.768-.316-4.142.666-7.938 2.98-11.333 3.617-5.3 8.723-7.91 13.813-8.068 11.178.02 19.394 8.168 19.348 17.944-.017 3.374-.932 6.56-2.143 9.688zm-.396-24.408c-3.77-3.934-8.373-6.226-13.825-6.565-7.254-.442-13.405 1.98-18.15 7.58-3.745 4.422-5.435 9.583-5.006 15.413.333 4.51 1.931 8.64 3.787 12.686 3.663 7.984 8.894 14.929 14.379 21.698 1.985 2.451 4.79 2.305 6.796-.155 1.844-2.259 3.533-4.626 5.186-7.028 3.982-5.8 7.924-11.625 10.5-18.248C83.047 54.412 83.95 50.946 84 46.85c.004-5.312-1.973-10.286-5.939-14.428z" fill="#479DDB"/></g><mask id="c" style="mask-type:alpha" maskUnits="userSpaceOnUse" x="0" y="0" width="54" height="57"><path fill-rule="evenodd" clip-rule="evenodd" d="M0 0h53.25v56.755H0V0z" fill="#fff"/></mask><g mask="url(#c)"><path fill-rule="evenodd" clip-rule="evenodd" d="M52.887 21.468c-.628.831-1.698.836-2.747-.004-6.97-5.587-13.941-11.17-20.892-16.787-.724-.584-1.16-.697-1.968-.037-5.31 4.338-10.675 8.606-16.04 12.874-.561.45-.807.898-.807 1.645.025 11.004.03 22.007-.004 33.015-.004.956.25 1.223 1.199 1.202 2.871-.062 5.743-.054 8.61-.004.845.017 1.032-.263 1.024-1.06-.038-3.642-.02-7.287-.017-10.933.005-1.687.55-2.246 2.24-2.255 3.216-.012 6.433-.012 9.65 0 1.486.008 2.098.593 2.106 2.075.017 4.51.017 9.025-.004 13.539-.004 1.34-.633 2.013-1.719 1.98-1.053-.03-1.627-.682-1.644-1.98-.029-1.975-.008-3.955-.008-5.934 0-1.808-.029-3.612.013-5.416.016-.702-.238-.89-.9-.877-1.764.033-3.528.054-5.289-.009-.849-.029-1.124.188-1.111 1.082.05 3.608.025 7.22.02 10.828-.003 1.888-.44 2.334-2.33 2.339-4.29.008-8.577.004-12.868-.005-1.873-.004-2.301-.447-2.301-2.36-.005-10.69-.005-21.384-.005-32.078v-1.44c-1.544 1.235-2.896 2.35-4.286 3.415-.924.71-1.736.635-2.393-.134-.637-.743-.537-1.728.262-2.501.125-.117.27-.217.404-.326 2.484-1.996 4.965-3.992 7.45-5.984 1.593-1.277 3.179-2.572 4.794-3.82.486-.377.678-.773.67-1.391-.034-2.64-.021-5.279-.013-7.918.004-.94.296-1.741 1.311-1.983 1.17-.284 2.035.447 2.085 1.808.058 1.595.02 3.19.025 4.79.004.38 0 .76 0 1.156.441.063.633-.28.882-.471C21.13 5.24 23.96 2.96 26.797.685c1.136-.906 1.806-.923 2.96.004a18609.35 18609.35 0 0122.572 18.17c.995.797 1.186 1.791.558 2.61z" fill="#FEFEFE"/></g><path fill-rule="evenodd" clip-rule="evenodd" d="M62.484 52.712c-2.938 0-5.352-2.434-5.327-5.37a5.31 5.31 0 015.298-5.29 5.325 5.325 0 015.356 5.328c.008 2.998-2.327 5.337-5.327 5.332zm.033-14.13c-4.757-.055-8.652 3.87-8.752 8.827-.1 4.702 3.825 8.678 8.66 8.774 4.683.092 8.707-3.846 8.836-8.644.129-4.748-3.924-8.9-8.744-8.958z" fill="#FEFEFE"/><mask id="d" style="mask-type:alpha" maskUnits="userSpaceOnUse" x="41" y="25" width="43" height="60"><path fill-rule="evenodd" clip-rule="evenodd" d="M41.015 25.806H84V85H41.015V25.806z" fill="#fff"/></mask><g mask="url(#d)"><path fill-rule="evenodd" clip-rule="evenodd" d="M78.457 56.83c-1.894 4.886-4.616 9.304-7.508 13.63-2.29 3.428-4.624 6.827-7.2 10.047-1.086 1.357-1.203 1.386-2.272.063-5.098-6.314-9.988-12.778-13.418-20.203-1.731-3.75-3.283-7.563-3.6-11.768-.316-4.142.666-7.938 2.98-11.333 3.617-5.3 8.723-7.91 13.813-8.068 11.178.02 19.394 8.168 19.348 17.944-.017 3.374-.932 6.56-2.143 9.688zm-.396-24.408c-3.77-3.934-8.373-6.226-13.825-6.565-7.254-.442-13.405 1.98-18.15 7.58-3.745 4.422-5.435 9.583-5.006 15.413.333 4.51 1.931 8.64 3.787 12.686 3.663 7.984 8.894 14.929 14.379 21.698 1.985 2.451 4.79 2.305 6.796-.155 1.844-2.259 3.533-4.626 5.186-7.028 3.982-5.8 7.924-11.625 10.5-18.248C83.047 54.412 83.95 50.946 84 46.85c.004-5.312-1.973-10.286-5.939-14.428z" fill="#FEFEFE"/></g><path fill-rule="evenodd" clip-rule="evenodd" d="M31.1 28.505c-.932-.021-1.868-.008-2.8-.008-.97 0-1.94-.021-2.905.008-.55.02-.82-.105-.808-.735.034-1.946.025-3.888.004-5.834-.004-.53.171-.743.716-.735 1.973.017 3.941.017 5.914 0 .508-.004.653.217.65.69-.017 1.979-.022 3.958.003 5.933.005.589-.287.69-.774.68zm4.125-9c-.013-1.072-.558-1.645-1.603-1.657a454.367 454.367 0 00-10.674 0c-1.15.012-1.686.635-1.694 1.8a841.502 841.502 0 000 10.297c.008 1.29.632 1.896 1.93 1.913 1.694.02 3.388.004 5.082.004 1.69 0 3.384.017 5.078-.004 1.206-.012 1.86-.568 1.872-1.741.046-3.537.046-7.074.009-10.611z" fill="#FEFEFE"/><path fill-rule="evenodd" clip-rule="evenodd" d="M62.484 52.712c-2.938 0-5.352-2.434-5.327-5.37a5.31 5.31 0 015.298-5.29 5.325 5.325 0 015.356 5.328c.008 2.998-2.327 5.337-5.327 5.332zm.033-14.13c-4.757-.055-8.652 3.87-8.752 8.827-.1 4.702 3.825 8.678 8.66 8.774 4.683.092 8.707-3.846 8.836-8.644.129-4.748-3.924-8.9-8.744-8.958z" fill="#479DDB"/><path fill-rule="evenodd" clip-rule="evenodd" d="M62.484 52.712c-2.938 0-5.352-2.434-5.327-5.37a5.31 5.31 0 015.298-5.29 5.325 5.325 0 015.356 5.328c.008 2.998-2.327 5.337-5.327 5.332zm.033-14.13c-4.757-.055-8.652 3.87-8.752 8.827-.1 4.702 3.825 8.678 8.66 8.774 4.683.092 8.707-3.846 8.836-8.644.129-4.748-3.924-8.9-8.744-8.958z" fill="#FEFEFE"/></svg>