<svg width="79" height="79" fill="none" xmlns="http://www.w3.org/2000/svg"><path fill-rule="evenodd" clip-rule="evenodd" d="M17.618 39.456c.062.706-.532 1.292-1.32 1.381-.062.008-.128.008-.194.008h-1.54v-.008c-.544 0-1.095.04-1.635-.011-.768-.066-1.238-.513-1.288-1.3-.05-.719.52-1.344 1.312-1.375a42.386 42.386 0 013.369.004c.78.035 1.23.532 1.296 1.3zm6.614 15.882c.287.501.284 1.021-.112 1.433-.827.861-1.677 1.7-2.562 2.5-.412.372-.928.4-1.444.123-.485-.26-.648-.69-.687-1.195.03-.784 2.779-3.586 3.544-3.606.57-.015.982.26 1.261.745zm16.621 9.044c0 .579.042 1.16-.012 1.731-.074.78-.563 1.246-1.34 1.243-.775-.004-1.284-.474-1.319-1.254a33.313 33.313 0 01.004-3.466c.043-.761.547-1.25 1.331-1.246.784.004 1.246.496 1.328 1.261.058.57.012 1.153.008 1.731zM38.159 14.54c0-.512-.027-1.028.004-1.54.05-.816.481-1.324 1.316-1.379.726-.05 1.339.513 1.37 1.316a40.614 40.614 0 01-.004 3.37c-.035.776-.532 1.226-1.304 1.292-.695.058-1.316-.543-1.37-1.327-.043-.575-.008-1.153-.008-1.732h-.004zm17.785 26.301c-1.871.012-3.742.004-5.613.004-1.742 0-3.481.016-5.224-.008-.536-.008-.854.109-1.099.664-1.114 2.511-3.897 3.606-6.377 2.581-2.45-1.013-3.687-3.726-2.764-6.23.233-.624.129-.966-.322-1.412-4.689-4.662-9.354-9.343-14.028-14.024-.225-.23-.461-.45-.667-.699-.516-.629-.617-1.316-.02-1.913.598-.602 1.3-.501 1.906.035.579.516 1.11 1.083 1.658 1.626 4.34 4.332 8.683 8.652 13.007 12.995.45.454.788.637 1.475.365 2.301-.9 5.057.244 6.082 2.534.303.676.68.788 1.316.785 3.42-.024 6.839-.008 10.258-.008.45 0 .917-.039 1.305.248.477.353.741.815.563 1.425-.206.722-.746 1.024-1.456 1.032zm3.664-20.086c-.058.194-.07.411-.179.555-.83 1.11-1.781 2.127-2.903 2.934-.536.392-1.203.202-1.642-.334-.404-.504-.462-1.14-.039-1.607.843-.927 1.755-1.793 2.683-2.631.415-.373.962-.342 1.447-.05.423.252.567.67.633 1.133zm-.14 36.99c.086.124.097.303.132.427-.058.497-.174.908-.62 1.172-.502.303-1.025.346-1.44-.03a38.302 38.302 0 01-2.694-2.633c-.447-.489-.307-1.09.116-1.587.423-.493 1.032-.75 1.549-.369a13.008 13.008 0 012.957 3.02zm7.903-18.27c.016.834-.508 1.292-1.324 1.358-.543.043-1.09.008-1.638.008-.543 0-1.09.031-1.634-.008-.815-.054-1.354-.5-1.362-1.327-.004-.823.508-1.32 1.331-1.355a43.805 43.805 0 013.272-.004c.827.024 1.343.501 1.355 1.328z" fill="#479DDB"/><mask id="a" style="mask-type:alpha" maskUnits="userSpaceOnUse" x="0" y="0" width="79" height="79"><path fill-rule="evenodd" clip-rule="evenodd" d="M0 0h79v79H0V0z" fill="#fff"/></mask><g mask="url(#a)"><path fill-rule="evenodd" clip-rule="evenodd" d="M39.479 76.26c-20.219.077-36.79-16.485-36.735-36.727C2.8 19.093 18.98 2.927 39.49 2.69c20.425.202 36.77 16.271 36.77 36.8 0 20.468-16.314 36.692-36.781 36.77zM39.514 0C17.793-.085.008 17.762 0 39.483-.004 61.2 17.77 78.98 39.498 79c21.71.02 39.564-17.75 39.502-39.49A39.508 39.508 0 0039.514 0z" fill="#479DDB"/></g><path fill-rule="evenodd" clip-rule="evenodd" d="M17.618 39.456c.062.706-.532 1.292-1.32 1.381-.062.008-.128.008-.194.008h-1.54v-.008c-.544 0-1.095.04-1.635-.011-.768-.066-1.238-.513-1.288-1.3-.05-.719.52-1.344 1.312-1.375a42.386 42.386 0 013.369.004c.78.035 1.23.532 1.296 1.3zm6.614 15.882c.287.501.284 1.021-.112 1.433-.827.861-1.677 1.7-2.562 2.5-.412.372-.928.4-1.444.123-.485-.26-.648-.69-.687-1.195.03-.784 2.779-3.586 3.544-3.606.57-.015.982.26 1.261.745zm16.621 9.044c0 .579.042 1.16-.012 1.731-.074.78-.563 1.246-1.34 1.243-.775-.004-1.284-.474-1.319-1.254a33.313 33.313 0 01.004-3.466c.043-.761.547-1.25 1.331-1.246.784.004 1.246.496 1.328 1.261.058.57.012 1.153.008 1.731zM38.159 14.54c0-.512-.027-1.028.004-1.54.05-.816.481-1.324 1.316-1.379.726-.05 1.339.513 1.37 1.316a40.614 40.614 0 01-.004 3.37c-.035.776-.532 1.226-1.304 1.292-.695.058-1.316-.543-1.37-1.327-.043-.575-.008-1.153-.008-1.732h-.004zm17.785 26.301c-1.871.012-3.742.004-5.613.004-1.742 0-3.481.016-5.224-.008-.536-.008-.854.109-1.099.664-1.114 2.511-3.897 3.606-6.377 2.581-2.45-1.013-3.687-3.726-2.764-6.23.233-.624.129-.966-.322-1.412-4.689-4.662-9.354-9.343-14.028-14.024-.225-.23-.461-.45-.667-.699-.516-.629-.617-1.316-.02-1.913.598-.602 1.3-.501 1.906.035.579.516 1.11 1.083 1.658 1.626 4.34 4.332 8.683 8.652 13.007 12.995.45.454.788.637 1.475.365 2.301-.9 5.057.244 6.082 2.534.303.676.68.788 1.316.785 3.42-.024 6.839-.008 10.258-.008.45 0 .917-.039 1.305.248.477.353.741.815.563 1.425-.206.722-.746 1.024-1.456 1.032zm3.664-20.086c-.058.194-.07.411-.179.555-.83 1.11-1.781 2.127-2.903 2.934-.536.392-1.203.202-1.642-.334-.404-.504-.462-1.14-.039-1.607.843-.927 1.755-1.793 2.683-2.631.415-.373.962-.342 1.447-.05.423.252.567.67.633 1.133zm-.14 36.99c.086.124.097.303.132.427-.058.497-.174.908-.62 1.172-.502.303-1.025.346-1.44-.03a38.302 38.302 0 01-2.694-2.633c-.447-.489-.307-1.09.116-1.587.423-.493 1.032-.75 1.549-.369a13.008 13.008 0 012.957 3.02zm7.903-18.27c.016.834-.508 1.292-1.324 1.358-.543.043-1.09.008-1.638.008-.543 0-1.09.031-1.634-.008-.815-.054-1.354-.5-1.362-1.327-.004-.823.508-1.32 1.331-1.355a43.805 43.805 0 013.272-.004c.827.024 1.343.501 1.355 1.328z" fill="#FEFEFE"/><mask id="b" style="mask-type:alpha" maskUnits="userSpaceOnUse" x="0" y="0" width="79" height="79"><path fill-rule="evenodd" clip-rule="evenodd" d="M0 0h79v79H0V0z" fill="#fff"/></mask><g mask="url(#b)"><path fill-rule="evenodd" clip-rule="evenodd" d="M39.479 76.26c-20.219.077-36.79-16.485-36.735-36.727C2.8 19.093 18.98 2.927 39.49 2.69c20.425.202 36.77 16.271 36.77 36.8 0 20.468-16.314 36.692-36.781 36.77zM39.514 0C17.793-.085.008 17.762 0 39.483-.004 61.2 17.77 78.98 39.498 79c21.71.02 39.564-17.75 39.502-39.49A39.508 39.508 0 0039.514 0z" fill="#FEFEFE"/></g><path fill-rule="evenodd" clip-rule="evenodd" d="M17.618 39.456c.062.706-.532 1.292-1.32 1.381-.062.008-.128.008-.194.008h-1.54v-.008c-.544 0-1.095.04-1.635-.011-.768-.066-1.238-.513-1.288-1.3-.05-.719.52-1.344 1.312-1.375a42.386 42.386 0 013.369.004c.78.035 1.23.532 1.296 1.3zm6.614 15.882c.287.501.284 1.021-.112 1.433-.827.861-1.677 1.7-2.562 2.5-.412.372-.928.4-1.444.123-.485-.26-.648-.69-.687-1.195.03-.784 2.779-3.586 3.544-3.606.57-.015.982.26 1.261.745zm16.621 9.044c0 .579.042 1.16-.012 1.731-.074.78-.563 1.246-1.34 1.243-.775-.004-1.284-.474-1.319-1.254a33.313 33.313 0 01.004-3.466c.043-.761.547-1.25 1.331-1.246.784.004 1.246.496 1.328 1.261.058.57.012 1.153.008 1.731zM38.159 14.54c0-.512-.027-1.028.004-1.54.05-.816.481-1.324 1.316-1.379.726-.05 1.339.513 1.37 1.316a40.614 40.614 0 01-.004 3.37c-.035.776-.532 1.226-1.304 1.292-.695.058-1.316-.543-1.37-1.327-.043-.575-.008-1.153-.008-1.732h-.004zm17.785 26.301c-1.871.012-3.742.004-5.613.004-1.742 0-3.481.016-5.224-.008-.536-.008-.854.109-1.099.664-1.114 2.511-3.897 3.606-6.377 2.581-2.45-1.013-3.687-3.726-2.764-6.23.233-.624.129-.966-.322-1.412-4.689-4.662-9.354-9.343-14.028-14.024-.225-.23-.461-.45-.667-.699-.516-.629-.617-1.316-.02-1.913.598-.602 1.3-.501 1.906.035.579.516 1.11 1.083 1.658 1.626 4.34 4.332 8.683 8.652 13.007 12.995.45.454.788.637 1.475.365 2.301-.9 5.057.244 6.082 2.534.303.676.68.788 1.316.785 3.42-.024 6.839-.008 10.258-.008.45 0 .917-.039 1.305.248.477.353.741.815.563 1.425-.206.722-.746 1.024-1.456 1.032zm3.664-20.086c-.058.194-.07.411-.179.555-.83 1.11-1.781 2.127-2.903 2.934-.536.392-1.203.202-1.642-.334-.404-.504-.462-1.14-.039-1.607.843-.927 1.755-1.793 2.683-2.631.415-.373.962-.342 1.447-.05.423.252.567.67.633 1.133zm-.14 36.99c.086.124.097.303.132.427-.058.497-.174.908-.62 1.172-.502.303-1.025.346-1.44-.03a38.302 38.302 0 01-2.694-2.633c-.447-.489-.307-1.09.116-1.587.423-.493 1.032-.75 1.549-.369a13.008 13.008 0 012.957 3.02zm7.903-18.27c.016.834-.508 1.292-1.324 1.358-.543.043-1.09.008-1.638.008-.543 0-1.09.031-1.634-.008-.815-.054-1.354-.5-1.362-1.327-.004-.823.508-1.32 1.331-1.355a43.805 43.805 0 013.272-.004c.827.024 1.343.501 1.355 1.328z" fill="#479DDB"/><path fill-rule="evenodd" clip-rule="evenodd" d="M57.4 39.809c-.206.722-.746 1.024-1.456 1.032-1.871.012-3.742.004-5.613.004-1.742 0-3.481.016-5.224-.008-.536-.008-.854.109-1.099.664-1.114 2.511-3.897 3.606-6.377 2.581-2.45-1.013-3.687-3.726-2.764-6.23.233-.624.129-.966-.322-1.412-4.689-4.662-9.354-9.343-14.028-14.024-.225-.23-.461-.45-.667-.699-.516-.629-.617-1.316-.02-1.913.598-.602 1.3-.501 1.906.035.579.516 1.11 1.083 1.658 1.626 4.34 4.332 8.683 8.652 13.007 12.995.45.454.788.637 1.475.365 2.301-.9 5.057.244 6.082 2.534.303.676.68.788 1.316.785 3.42-.024 6.839-.008 10.258-.008.45 0 .917-.039 1.305.248.477.353.741.815.563 1.425zM40.845 16.306c-.035.777-.532 1.227-1.304 1.293-.695.058-1.316-.543-1.37-1.327-.043-.575-.008-1.153-.008-1.732h-.004c0-.512-.027-1.028.004-1.54.05-.816.481-1.324 1.316-1.379.726-.05 1.339.513 1.37 1.316a40.614 40.614 0 01-.004 3.37zm-23.227 23.15c.062.706-.532 1.292-1.32 1.381-.062.008-.128.008-.194.008h-1.54v-.008c-.544 0-1.095.04-1.635-.011-.768-.066-1.238-.513-1.288-1.3-.05-.719.52-1.344 1.312-1.375a42.386 42.386 0 013.369.004c.78.035 1.23.532 1.296 1.3zm49.753.019c.016.834-.508 1.292-1.324 1.358-.543.043-1.09.008-1.638.008-.543 0-1.09.031-1.634-.008-.815-.054-1.354-.5-1.362-1.327-.004-.823.508-1.32 1.331-1.355a43.805 43.805 0 013.272-.004c.827.024 1.343.501 1.355 1.328zM40.853 64.382c0 .579.042 1.16-.012 1.731-.074.78-.563 1.246-1.34 1.243-.775-.004-1.284-.474-1.319-1.254a33.313 33.313 0 01.004-3.466c.043-.761.547-1.25 1.331-1.246.784.004 1.246.496 1.328 1.261.058.57.012 1.153.008 1.731zm18.755-43.627c-.058.194-.07.411-.179.555-.83 1.11-1.781 2.127-2.903 2.934-.536.392-1.203.202-1.642-.334-.404-.504-.462-1.14-.039-1.607.843-.927 1.755-1.793 2.683-2.631.415-.373.962-.342 1.447-.05.423.252.567.67.633 1.133zM24.12 56.77c-.827.862-1.677 1.7-2.562 2.5-.412.373-.928.4-1.444.124-.485-.26-.648-.69-.687-1.195.03-.784 2.779-3.586 3.544-3.606.57-.015.982.26 1.261.745.287.501.284 1.021-.112 1.433zm35.48 1.402c-.058.497-.174.908-.62 1.172-.502.303-1.025.346-1.44-.03a38.302 38.302 0 01-2.694-2.633c-.447-.489-.307-1.09.116-1.587.423-.493 1.032-.75 1.549-.369a13.008 13.008 0 012.957 3.02c.086.124.097.303.132.427z" fill="#FEFEFE"/></svg>