<svg width="62" height="85" fill="none" xmlns="http://www.w3.org/2000/svg"><path fill-rule="evenodd" clip-rule="evenodd" d="M27.883 54.659c-.266.263-.54.53-.619.952.461.243.952.109 1.417.117 1.346.025 2.692-.004 4.038.03.702.016 1.213.375 1.217 1.136 0 .797-.495 1.186-1.271 1.19-1.828.008-3.66.058-5.484-.017-.893-.037-1.005.376-1.034 1.099-.03.827.365.969 1.072.956 1.723-.037 3.452-.012 5.176-.008.785 0 1.483.167 1.545 1.136.046.74-.565 1.203-1.604 1.211-1.653.013-3.306.005-5.08.005 1.076 2.238 4.104 3.57 6.617 3.028.337-.071.665-.184.997-.267.686-.168 1.28-.046 1.513.693.236.764-.133 1.29-.848 1.537-2.334.798-4.64.656-6.83-.447-1.702-.852-3.07-2.122-3.87-3.897-.246-.535-.582-.693-1.127-.656a9.1 9.1 0 01-1.653-.017c-.673-.075-1.213-.392-1.209-1.169.004-.769.499-1.09 1.205-1.149.208-.016.42-.037.623-.012.897.125 1.2-.221 1.15-1.153-.037-.69-.224-.94-.892-.873-.341.033-.69.02-1.035-.017-.635-.066-1.013-.455-1.047-1.086-.033-.626.295-1.044.927-1.182.037-.008.07-.029.104-.02 1.99.388 2.878-.815 4.004-2.273 2.322-2.999 5.567-3.905 9.272-2.924.79.21 1.525.485 1.28 1.504-.266 1.099-1.114.948-1.92.74-2.563-.665-4.769-.034-6.634 1.833z" fill="#479DDB"/><path fill-rule="evenodd" clip-rule="evenodd" d="M43.52 81.454c-4.18.02-8.355.004-12.534 0-4.212 0-8.424.03-12.636-.004C10.046 81.383 3.615 75 3.499 66.71c-.03-2.14.39-4.207 1.258-6.174 4.732-10.672 9.472-21.344 14.17-32.033.357-.81.79-1.023 1.616-1.019 7.008.03 14.02.034 21.028-.004.777 0 1.147.247 1.458.948 4.707 10.685 9.496 21.332 14.153 32.041 4.403 10.125-2.671 20.926-13.663 20.985zM13.68 4.457c-.253-.735-.157-.931.648-.927 5.559.029 11.12.017 16.68.017 5.487 0 10.978.012 16.47-.017.856-.004 1.138.067.802 1.044a1726.761 1726.761 0 00-6.244 18.508c-.216.647-.457.948-1.2.931a195.86 195.86 0 00-7.665 0c-.789.013-1-.238-.98-1.006.05-1.838.017-3.68.017-5.518 0-.247.012-.489-.009-.731-.07-.718-.336-1.316-1.159-1.337-.884-.02-1.225.59-1.238 1.358-.033 2.047-.058 4.097.005 6.144.029.881-.254 1.107-1.105 1.09-2.518-.054-5.04-.037-7.56-.004-.653.008-.948-.192-1.164-.844A2297.745 2297.745 0 0013.68 4.457zM59.97 57.95c-4.437-9.89-8.79-19.827-13.19-29.739-.212-.476-.29-.756.195-1.19.99-.898.678-2.54-.573-2.84-1.026-.247-.79-.686-.565-1.346 1.986-5.914 3.959-11.833 5.936-17.751.229-.698.449-1.383.3-2.135C51.71 1.1 50.322.01 48.245.01c-5.728-.013-11.46-.004-17.19-.004-5.798 0-11.597-.013-17.396.004-2.185.004-3.706 1.424-3.785 3.441-.029.752.258 1.429.49 2.114a4526.332 4526.332 0 005.862 17.451c.203.597.307.923-.52 1.128-1.283.313-1.723 1.883-.764 2.782.574.538.436.902.191 1.462-4.49 10.14-8.98 20.282-13.442 30.436C-1.586 66.287-.003 74.7 5.592 79.9c3.664 3.408 7.997 5.092 12.978 5.096 7.971.008 15.947 0 23.923.004a35.74 35.74 0 003.718-.188c7.02-.756 13.55-6.583 15.237-13.5 1.134-4.661.461-9.038-1.479-13.361z" fill="#479DDB"/><path fill-rule="evenodd" clip-rule="evenodd" d="M27.883 54.659c-.266.263-.54.53-.619.952.461.243.952.109 1.417.117 1.346.025 2.692-.004 4.038.03.702.016 1.213.375 1.217 1.136 0 .797-.495 1.186-1.271 1.19-1.828.008-3.66.058-5.484-.017-.893-.037-1.005.376-1.034 1.099-.03.827.365.969 1.072.956 1.723-.037 3.452-.012 5.176-.008.785 0 1.483.167 1.545 1.136.046.74-.565 1.203-1.604 1.211-1.653.013-3.306.005-5.08.005 1.076 2.238 4.104 3.57 6.617 3.028.337-.071.665-.184.997-.267.686-.168 1.28-.046 1.513.693.236.764-.133 1.29-.848 1.537-2.334.798-4.64.656-6.83-.447-1.702-.852-3.07-2.122-3.87-3.897-.246-.535-.582-.693-1.127-.656a9.1 9.1 0 01-1.653-.017c-.673-.075-1.213-.392-1.209-1.169.004-.769.499-1.09 1.205-1.149.208-.016.42-.037.623-.012.897.125 1.2-.221 1.15-1.153-.037-.69-.224-.94-.892-.873-.341.033-.69.02-1.035-.017-.635-.066-1.013-.455-1.047-1.086-.033-.626.295-1.044.927-1.182.037-.008.07-.029.104-.02 1.99.388 2.878-.815 4.004-2.273 2.322-2.999 5.567-3.905 9.272-2.924.79.21 1.525.485 1.28 1.504-.266 1.099-1.114.948-1.92.74-2.563-.665-4.769-.034-6.634 1.833z" fill="#FEFEFE"/><path fill-rule="evenodd" clip-rule="evenodd" d="M43.52 81.454c-4.18.02-8.355.004-12.534 0-4.212 0-8.424.03-12.636-.004C10.046 81.383 3.615 75 3.499 66.71c-.03-2.14.39-4.207 1.258-6.174 4.732-10.672 9.472-21.344 14.17-32.033.357-.81.79-1.023 1.616-1.019 7.008.03 14.02.034 21.028-.004.777 0 1.147.247 1.458.948 4.707 10.685 9.496 21.332 14.153 32.041 4.403 10.125-2.671 20.926-13.663 20.985zM13.68 4.457c-.253-.735-.157-.931.648-.927 5.559.029 11.12.017 16.68.017 5.487 0 10.978.012 16.47-.017.856-.004 1.138.067.802 1.044a1726.761 1726.761 0 00-6.244 18.508c-.216.647-.457.948-1.2.931a195.86 195.86 0 00-7.665 0c-.789.013-1-.238-.98-1.006.05-1.838.017-3.68.017-5.518 0-.247.012-.489-.009-.731-.07-.718-.336-1.316-1.159-1.337-.884-.02-1.225.59-1.238 1.358-.033 2.047-.058 4.097.005 6.144.029.881-.254 1.107-1.105 1.09-2.518-.054-5.04-.037-7.56-.004-.653.008-.948-.192-1.164-.844A2297.745 2297.745 0 0013.68 4.457zM59.97 57.95c-4.437-9.89-8.79-19.827-13.19-29.739-.212-.476-.29-.756.195-1.19.99-.898.678-2.54-.573-2.84-1.026-.247-.79-.686-.565-1.346 1.986-5.914 3.959-11.833 5.936-17.751.229-.698.449-1.383.3-2.135C51.71 1.1 50.322.01 48.245.01c-5.728-.013-11.46-.004-17.19-.004-5.798 0-11.597-.013-17.396.004-2.185.004-3.706 1.424-3.785 3.441-.029.752.258 1.429.49 2.114a4526.332 4526.332 0 005.862 17.451c.203.597.307.923-.52 1.128-1.283.313-1.723 1.883-.764 2.782.574.538.436.902.191 1.462-4.49 10.14-8.98 20.282-13.442 30.436C-1.586 66.287-.003 74.7 5.592 79.9c3.664 3.408 7.997 5.092 12.978 5.096 7.971.008 15.947 0 23.923.004a35.74 35.74 0 003.718-.188c7.02-.756 13.55-6.583 15.237-13.5 1.134-4.661.461-9.038-1.479-13.361z" fill="#FEFEFE"/><path fill-rule="evenodd" clip-rule="evenodd" d="M36.383 65.92c.236.764-.133 1.29-.848 1.537-2.334.798-4.64.656-6.83-.447-1.702-.852-3.07-2.122-3.87-3.897-.246-.535-.582-.693-1.127-.656a9.1 9.1 0 01-1.653-.017c-.673-.075-1.213-.392-1.209-1.169.004-.769.499-1.09 1.205-1.149.208-.016.42-.037.623-.012.897.125 1.2-.221 1.15-1.153-.037-.69-.224-.94-.892-.873-.341.033-.69.02-1.035-.017-.635-.066-1.013-.455-1.047-1.086-.033-.626.295-1.044.927-1.182.037-.008.07-.029.104-.02 1.99.388 2.878-.815 4.004-2.273 2.322-2.999 5.567-3.905 9.272-2.924.79.21 1.525.485 1.28 1.504-.266 1.099-1.114.948-1.92.74-2.563-.665-4.769-.034-6.634 1.833-.266.263-.54.53-.619.952.461.243.952.109 1.417.117 1.346.025 2.692-.004 4.038.03.702.016 1.213.375 1.217 1.136 0 .797-.495 1.186-1.271 1.19-1.828.008-3.66.058-5.484-.017-.893-.037-1.005.376-1.034 1.099-.03.827.365.969 1.072.956 1.723-.037 3.452-.012 5.176-.008.785 0 1.483.167 1.545 1.136.046.74-.565 1.203-1.604 1.211-1.653.013-3.306.005-5.08.005 1.076 2.238 4.104 3.57 6.617 3.028.337-.071.665-.184.997-.267.686-.168 1.28-.046 1.513.693z" fill="#479DDB"/><path fill-rule="evenodd" clip-rule="evenodd" d="M36.383 65.92c.236.764-.133 1.29-.848 1.537-2.334.798-4.64.656-6.83-.447-1.702-.852-3.07-2.122-3.87-3.897-.246-.535-.582-.693-1.127-.656a9.1 9.1 0 01-1.653-.017c-.673-.075-1.213-.392-1.209-1.169.004-.769.499-1.09 1.205-1.149.208-.016.42-.037.623-.012.897.125 1.2-.221 1.15-1.153-.037-.69-.224-.94-.892-.873-.341.033-.69.02-1.035-.017-.635-.066-1.013-.455-1.047-1.086-.033-.626.295-1.044.927-1.182.037-.008.07-.029.104-.02 1.99.388 2.878-.815 4.004-2.273 2.322-2.999 5.567-3.905 9.272-2.924.79.21 1.525.485 1.28 1.504-.266 1.099-1.114.948-1.92.74-2.563-.665-4.769-.034-6.634 1.833-.266.263-.54.53-.619.952.461.243.952.109 1.417.117 1.346.025 2.692-.004 4.038.03.702.016 1.213.375 1.217 1.136 0 .797-.495 1.186-1.271 1.19-1.828.008-3.66.058-5.484-.017-.893-.037-1.005.376-1.034 1.099-.03.827.365.969 1.072.956 1.723-.037 3.452-.012 5.176-.008.785 0 1.483.167 1.545 1.136.046.74-.565 1.203-1.604 1.211-1.653.013-3.306.005-5.08.005 1.076 2.238 4.104 3.57 6.617 3.028.337-.071.665-.184.997-.267.686-.168 1.28-.046 1.513.693z" fill="#FEFEFE"/></svg>