<svg width="62" height="88" fill="none" xmlns="http://www.w3.org/2000/svg"><mask id="a" style="mask-type:alpha" maskUnits="userSpaceOnUse" x="0" y="0" width="62" height="88"><path fill-rule="evenodd" clip-rule="evenodd" d="M0 0h62v88H0V0z" fill="#fff"/></mask><g mask="url(#a)"><path fill-rule="evenodd" clip-rule="evenodd" d="M57.01 57.476H19.27c-4.914 0-9.829.005-14.739.03-1.104.005-1.41-.289-1.354-1.378.09-1.776.021-1.78 1.76-1.78 17.492 0 34.987 0 52.479.004 1.519 0 1.372-.203 1.38 1.378.01 1.746.005 1.746-1.786 1.746zm-4.897 4.197A2586.953 2586.953 0 0048.68 84.03c-.134.877-.66.765-1.226.765H26.795c-4.086 0-8.176-.018-12.262.013-.764.004-1.118-.147-1.247-1.012-1.083-7.278-2.23-14.547-3.353-21.82-.202-1.332-.185-1.336 1.118-1.336h20.011c6.705 0 13.414.013 20.12-.017.84-.005 1.07.164.931 1.05zm-17.03-48.551c2.645-2.77 5.929-4.054 9.726-4.076.448 0 .858-.043.832.635-.078 2.144.134 4.296-.366 6.431-1.239 5.238-5.704 9.193-11.033 9.746-.92.095-1.19-.164-1.143-1.076.073-1.323.021-2.654.021-3.985 0-.895.104-1.81-.021-2.688-.298-2.075.664-3.609 1.984-4.987zm26.91 40.551c0-2.074-.452-2.528-2.528-2.528-8.392 0-16.788-.017-25.18.022-.953.004-1.195-.255-1.186-1.202.038-6.539.043-13.082-.005-19.625-.008-1.02.29-1.305 1.282-1.413 6.57-.722 11.045-4.253 13.444-10.39 1.54-3.946.785-8.104.928-12.175.013-.389-.285-.45-.596-.445-2.148.013-4.306-.12-6.441.23-3.202.526-5.955 1.996-8.59 4.412V9.102c0-2.446.016-4.892-.014-7.334-.013-1.02-.69-1.741-1.527-1.767-.889-.026-1.584.704-1.653 1.763-.017.32-.004.644-.004.968 0 15.744-.009 31.489.022 47.233 0 .934-.207 1.227-1.178 1.202-2.65-.07-5.307-.022-7.96-.022-6.17 0-12.336-.004-18.506 0-1.774.004-2.291.536-2.291 2.334-.005 1.724-.022 3.453.004 5.177.017 1.37.613 1.954 1.989 1.98 1.148.017 2.295.051 3.439-.013.828-.048 1.169.173 1.303 1.072 1.173 7.96 2.412 15.908 3.624 23.865.332 2.186.617 2.437 2.835 2.437h26.681c3.193 0 6.386.009 9.579-.004 1.342-.004 1.8-.393 2.023-1.716.294-1.733.553-3.475.82-5.212 1.001-6.535 2.01-13.07 2.99-19.604.095-.63.328-.851.958-.834a72.99 72.99 0 003.767.004c1.359-.021 1.946-.613 1.967-1.996.022-1.656.005-3.306.005-4.962z" fill="#FCFDFD"/></g><path fill-rule="evenodd" clip-rule="evenodd" d="M43.997 57.477c-4.336 0-8.676 0-13.013.004-3.904 0-7.81-.004-11.714-.004h24.727z" fill="#479EDB"/></svg>