<svg width="68" height="85" fill="none" xmlns="http://www.w3.org/2000/svg"><path fill-rule="evenodd" clip-rule="evenodd" d="M14.355 55.655c-3.342.004-5.995-2.675-5.97-6.027a5.928 5.928 0 015.966-5.928c3.345 0 5.977 2.655 5.965 6.028a5.924 5.924 0 01-5.961 5.927zm.067-15.077a9.078 9.078 0 00-9.153 9.079c-.02 5.097 3.976 9.12 9.065 9.129 5.093.008 9.115-4.016 9.098-9.1-.016-5.034-4.013-9.075-9.01-9.108zM34.24 59.825c-3.32.013-6.015-2.68-6.015-6.019 0-3.235 2.716-5.936 5.986-5.94a6.005 6.005 0 016.016 5.91c.05 3.294-2.662 6.033-5.986 6.05zm.042-15.085c-5.018-.03-9.169 4.078-9.169 9.07-.004 5.03 4.08 9.13 9.107 9.138 5.01.012 9.115-4.095 9.119-9.125.004-4.955-4.08-9.054-9.057-9.083zm19.415 10.92c-3.35-.013-5.982-2.68-5.966-6.045a5.939 5.939 0 015.982-5.915 5.953 5.953 0 015.966 6.04 5.948 5.948 0 01-5.982 5.92zm.104-15.082c-5.043-.046-9.14 3.986-9.19 9.05-.05 5.063 3.971 9.133 9.048 9.158 5.081.029 9.132-4 9.132-9.07-.005-5.03-4-9.092-8.99-9.138z" fill="#479DDB"/><path fill-rule="evenodd" clip-rule="evenodd" d="M67.108 84.207c.009.505-.116.722-.684.751-2.44.121-2.436.142-2.44-2.333 0-2.325.038-4.65-.03-6.971-.133-4.658-3.182-8.632-7.667-10.085-4.263-1.386-9.006.092-11.851 3.673-.346.439-.576.735-.038 1.286 2.558 2.621 3.817 5.819 3.938 9.463.046 1.386-.004 2.776.025 4.162.017.55-.108.784-.734.805-2.394.08-2.394.105-2.39-2.258 0-1.94.075-3.882-.555-5.764-1.66-4.972-6.77-8.274-11.71-7.543-5.644.835-9.569 5.134-9.748 10.715a73.231 73.231 0 00-.005 4.061c.013.568-.154.773-.755.79-2.373.07-2.348.095-2.377-2.297-.034-2.963.033-5.898 1.422-8.628.622-1.214 1.38-2.325 2.32-3.306.35-.363.392-.605.083-1.043-2.616-3.761-7.496-5.493-11.956-4.2-4.5 1.303-7.788 5.415-7.905 9.998-.07 2.843-.05 5.69-.02 8.532.008.722-.193.948-.93.948-2.203-.009-2.203.02-2.203-2.146.004-2.43-.084-4.863.041-7.284.309-5.836 3.2-10.022 8.473-12.448 5.564-2.554 12.568-.789 16.423 4.062.688.868 1.16 1.006 2.178.492 4.05-2.053 8.197-2.062 12.297-.112.797.38 1.202.338 1.794-.368 3.95-4.7 9.065-6.265 14.85-4.616 5.549 1.586 8.907 5.506 9.958 11.27.355 1.933.1 3.878.192 5.464 0 1.879-.016 3.406.004 4.93zM27.75 13.612c.016 1.106-.897 2.02-2.032 2.025-1.147.004-2.065-.864-2.086-1.979-.02-1.14.972-2.158 2.086-2.137 1.085.02 2.015.977 2.032 2.091zm8.31-.067c.012 1.065-.998 2.063-2.074 2.05-1.038-.008-2.01-.943-2.048-1.97-.042-1.119.968-2.17 2.073-2.162 1.076.008 2.04.989 2.048 2.082zm8.793.072c-.02 1.047-.955 1.97-2.006 1.982-1.085.013-2.049-.951-2.049-2.045 0-1.165.989-2.142 2.111-2.087 1.106.054 1.97 1.01 1.944 2.15z" fill="#479DDB"/><mask id="a" style="mask-type:alpha" maskUnits="userSpaceOnUse" x="0" y="0" width="68" height="32"><path fill-rule="evenodd" clip-rule="evenodd" d="M0 0h68v31.17H0V0z" fill="#fff"/></mask><g mask="url(#a)"><path fill-rule="evenodd" clip-rule="evenodd" d="M64.902 22.687c.004.918-.197 1.286-1.198 1.244-2.077-.08-4.159.012-6.24-.038-.905-.02-1.594.26-2.194.927-.672.747-1.423 1.42-2.111 2.154-.347.367-.593.35-.93-.008-.739-.781-1.523-1.52-2.266-2.296-.509-.535-1.089-.78-1.84-.773a608.08 608.08 0 01-9.569 0c-.755-.008-1.327.247-1.835.785-.689.73-1.448 1.399-2.111 2.154-.476.543-.793.46-1.235-.025-.7-.768-1.468-1.473-2.19-2.22-.463-.48-.993-.694-1.665-.69-3.224.017-6.449.022-9.673-.003-.71-.005-1.273.212-1.757.722-.692.726-1.46 1.39-2.11 2.154-.538.634-.893.517-1.385-.042-.614-.701-1.331-1.315-1.961-2.008-.555-.614-1.201-.843-2.027-.826-2.182.033-4.368-.017-6.55.025-.73.012-.95-.242-.947-.956.021-6.312.025-12.627-.008-18.939-.004-.876.396-.918 1.072-.914 9.95.013 19.898.008 29.848.008 9.878 0 19.756.017 29.634-.025 1.03-.004 1.256.297 1.252 1.278a1397.22 1397.22 0 00-.004 18.312zm3.087-19.652C67.98.952 66.999 0 64.909 0H3.043C1.01 0 .017.956.013 2.98-.004 9.985-.004 16.99.01 23.998c.004 2.05 1.018 3.018 3.104 3.03 2.077.013 4.159.038 6.236-.012.822-.021 1.44.175 2.002.805.801.91 1.694 1.737 2.562 2.588 1.026 1.006 1.743 1.015 2.753.025.968-.943 1.931-1.895 2.87-2.867.359-.376.738-.551 1.272-.547 2.566.025 5.131.025 7.693 0 .534-.004.913.167 1.276.543.91.951 1.852 1.874 2.79 2.8 1.077 1.065 1.753 1.056 2.83.046 1.184-1.106 2.064-2.771 3.558-3.251 1.476-.472 3.245.045 4.847-.163 2.928-.372 5.273.405 6.975 2.884.175.25.434.451.659.66.905.839 1.64.847 2.536-.013a77.618 77.618 0 002.862-2.876c.442-.476.913-.643 1.547-.63 2.186.033 4.368.02 6.554.008 2.056-.012 3.045-1.002 3.053-3.076.017-3.469.005-6.938.005-10.407.004-3.502.016-7.004-.004-10.51z" fill="#479DDB"/></g><path fill-rule="evenodd" clip-rule="evenodd" d="M27.75 13.612c.016 1.106-.897 2.02-2.032 2.025-1.147.004-2.065-.864-2.086-1.979-.02-1.14.972-2.158 2.086-2.137 1.085.02 2.015.977 2.032 2.091zm8.31-.067c.012 1.065-.998 2.063-2.074 2.05-1.038-.008-2.01-.943-2.048-1.97-.042-1.119.968-2.17 2.073-2.162 1.076.008 2.04.989 2.048 2.082zm8.793.072c-.02 1.047-.955 1.97-2.006 1.982-1.085.013-2.049-.951-2.049-2.045 0-1.165.989-2.142 2.111-2.087 1.106.054 1.97 1.01 1.944 2.15z" fill="#FEFEFE"/><mask id="b" style="mask-type:alpha" maskUnits="userSpaceOnUse" x="0" y="0" width="68" height="32"><path fill-rule="evenodd" clip-rule="evenodd" d="M0 0h68v31.17H0V0z" fill="#fff"/></mask><g mask="url(#b)"><path fill-rule="evenodd" clip-rule="evenodd" d="M64.902 22.687c.004.918-.197 1.286-1.198 1.244-2.077-.08-4.159.012-6.24-.038-.905-.02-1.594.26-2.194.927-.672.747-1.423 1.42-2.111 2.154-.347.367-.593.35-.93-.008-.739-.781-1.523-1.52-2.266-2.296-.509-.535-1.089-.78-1.84-.773a608.08 608.08 0 01-9.569 0c-.755-.008-1.327.247-1.835.785-.689.73-1.448 1.399-2.111 2.154-.476.543-.793.46-1.235-.025-.7-.768-1.468-1.473-2.19-2.22-.463-.48-.993-.694-1.665-.69-3.224.017-6.449.022-9.673-.003-.71-.005-1.273.212-1.757.722-.692.726-1.46 1.39-2.11 2.154-.538.634-.893.517-1.385-.042-.614-.701-1.331-1.315-1.961-2.008-.555-.614-1.201-.843-2.027-.826-2.182.033-4.368-.017-6.55.025-.73.012-.95-.242-.947-.956.021-6.312.025-12.627-.008-18.939-.004-.876.396-.918 1.072-.914 9.95.013 19.898.008 29.848.008 9.878 0 19.756.017 29.634-.025 1.03-.004 1.256.297 1.252 1.278a1397.22 1397.22 0 00-.004 18.312zm3.087-19.652C67.98.952 66.999 0 64.909 0H3.043C1.01 0 .017.956.013 2.98-.004 9.985-.004 16.99.01 23.998c.004 2.05 1.018 3.018 3.104 3.03 2.077.013 4.159.038 6.236-.012.822-.021 1.44.175 2.002.805.801.91 1.694 1.737 2.562 2.588 1.026 1.006 1.743 1.015 2.753.025.968-.943 1.931-1.895 2.87-2.867.359-.376.738-.551 1.272-.547 2.566.025 5.131.025 7.693 0 .534-.004.913.167 1.276.543.91.951 1.852 1.874 2.79 2.8 1.077 1.065 1.753 1.056 2.83.046 1.184-1.106 2.064-2.771 3.558-3.251 1.476-.472 3.245.045 4.847-.163 2.928-.372 5.273.405 6.975 2.884.175.25.434.451.659.66.905.839 1.64.847 2.536-.013a77.618 77.618 0 002.862-2.876c.442-.476.913-.643 1.547-.63 2.186.033 4.368.02 6.554.008 2.056-.012 3.045-1.002 3.053-3.076.017-3.469.005-6.938.005-10.407.004-3.502.016-7.004-.004-10.51z" fill="#FEFEFE"/></g><path fill-rule="evenodd" clip-rule="evenodd" d="M67.108 84.207c.009.505-.116.722-.684.751-2.44.121-2.436.142-2.44-2.333 0-2.325.038-4.65-.03-6.971-.133-4.658-3.182-8.632-7.667-10.085-4.263-1.386-9.006.092-11.851 3.673-.346.439-.576.735-.038 1.286 2.558 2.621 3.817 5.819 3.938 9.463.046 1.386-.004 2.776.025 4.162.017.55-.108.784-.734.805-2.394.08-2.394.105-2.39-2.258 0-1.94.075-3.882-.555-5.764-1.66-4.972-6.77-8.274-11.71-7.543-5.644.835-9.569 5.134-9.748 10.715a73.231 73.231 0 00-.005 4.061c.013.568-.154.773-.755.79-2.373.07-2.348.095-2.377-2.297-.034-2.963.033-5.898 1.422-8.628.622-1.214 1.38-2.325 2.32-3.306.35-.363.392-.605.083-1.043-2.616-3.761-7.496-5.493-11.956-4.2-4.5 1.303-7.788 5.415-7.905 9.998-.07 2.843-.05 5.69-.02 8.532.008.722-.193.948-.93.948-2.203-.009-2.203.02-2.203-2.146.004-2.43-.084-4.863.041-7.284.309-5.836 3.2-10.022 8.473-12.448 5.564-2.554 12.568-.789 16.423 4.062.688.868 1.16 1.006 2.178.492 4.05-2.053 8.197-2.062 12.297-.112.797.38 1.202.338 1.794-.368 3.95-4.7 9.065-6.265 14.85-4.616 5.549 1.586 8.907 5.506 9.958 11.27.355 1.933.1 3.878.192 5.464 0 1.879-.016 3.406.004 4.93zM14.355 55.655c-3.342.004-5.995-2.675-5.97-6.027a5.928 5.928 0 015.966-5.928c3.345 0 5.977 2.655 5.965 6.028a5.924 5.924 0 01-5.961 5.927zm.067-15.077a9.078 9.078 0 00-9.153 9.079c-.02 5.097 3.976 9.12 9.065 9.129 5.093.008 9.115-4.016 9.098-9.1-.016-5.034-4.013-9.075-9.01-9.108zM53.697 55.66c-3.35-.013-5.982-2.68-5.966-6.045a5.939 5.939 0 015.982-5.915 5.953 5.953 0 015.966 6.04 5.948 5.948 0 01-5.982 5.92zm.104-15.082c-5.043-.046-9.14 3.986-9.19 9.05-.05 5.063 3.971 9.133 9.048 9.158 5.081.029 9.132-4 9.132-9.07-.005-5.03-4-9.092-8.99-9.138z" fill="#FEFEFE"/><path fill-rule="evenodd" clip-rule="evenodd" d="M34.24 59.825c-3.32.013-6.015-2.68-6.015-6.019 0-3.235 2.716-5.936 5.986-5.94a6.005 6.005 0 016.016 5.91c.05 3.294-2.662 6.033-5.986 6.05zm.042-15.085c-5.018-.03-9.169 4.078-9.169 9.07-.004 5.03 4.08 9.13 9.107 9.138 5.01.012 9.115-4.095 9.119-9.125.004-4.955-4.08-9.054-9.057-9.083z" fill="#FEFEFE"/><path fill-rule="evenodd" clip-rule="evenodd" d="M27.75 13.612c.016 1.106-.897 2.02-2.032 2.025-1.147.004-2.065-.864-2.086-1.979-.02-1.14.972-2.158 2.086-2.137 1.085.02 2.015.977 2.032 2.091zm8.31-.067c.012 1.065-.998 2.063-2.074 2.05-1.038-.008-2.01-.943-2.048-1.97-.042-1.119.968-2.17 2.073-2.162 1.076.008 2.04.989 2.048 2.082zm8.793.072c-.02 1.047-.955 1.97-2.006 1.982-1.085.013-2.049-.951-2.049-2.045 0-1.165.989-2.142 2.111-2.087 1.106.054 1.97 1.01 1.944 2.15z" fill="#479DDB"/><path fill-rule="evenodd" clip-rule="evenodd" d="M27.75 13.612c.016 1.106-.897 2.02-2.032 2.025-1.147.004-2.065-.864-2.086-1.979-.02-1.14.972-2.158 2.086-2.137 1.085.02 2.015.977 2.032 2.091z" fill="#FDFEFE"/><path fill-rule="evenodd" clip-rule="evenodd" d="M36.06 13.545c.012 1.065-.998 2.063-2.074 2.05-1.038-.008-2.01-.943-2.048-1.97-.042-1.119.968-2.17 2.073-2.162 1.076.008 2.04.989 2.048 2.082z" fill="#FDFDFE"/><path fill-rule="evenodd" clip-rule="evenodd" d="M44.853 13.617c-.02 1.047-.955 1.97-2.006 1.982-1.085.013-2.049-.951-2.049-2.045 0-1.165.989-2.142 2.111-2.087 1.106.054 1.97 1.01 1.944 2.15z" fill="#FDFEFE"/></svg>