<svg width="84" height="85" viewBox="0 0 84 85" fill="none" xmlns="http://www.w3.org/2000/svg">
<path fill-rule="evenodd" clip-rule="evenodd" d="M31.1003 28.5048C30.1681 28.4839 29.2317 28.4965 28.2995 28.4965C27.3298 28.4965 26.3601 28.4756 25.3946 28.5048C24.8452 28.5257 24.5747 28.4004 24.5872 27.7699C24.6205 25.8239 24.6122 23.8821 24.5914 21.9362C24.5872 21.4058 24.762 21.1928 25.3072 21.2012C27.2798 21.2179 29.2483 21.2179 31.221 21.2012C31.7287 21.197 31.8744 21.4183 31.8702 21.8902C31.8536 23.8696 31.8494 25.849 31.8744 27.8241C31.8785 28.4129 31.5872 28.5132 31.1003 28.5048ZM35.2246 19.5058C35.2121 18.4326 34.6669 17.8605 33.6223 17.848C30.064 17.8062 26.5058 17.8062 22.9475 17.848C21.7988 17.8605 21.262 18.4827 21.2536 19.6478C21.2328 23.0803 21.2328 26.5129 21.2536 29.9455C21.262 31.2358 21.8862 31.8413 23.1847 31.858C24.8785 31.8789 26.5723 31.8622 28.2662 31.8622C29.9558 31.8622 31.6497 31.8789 33.3435 31.858C34.5504 31.8455 35.2038 31.2901 35.2163 30.1167C35.262 26.5797 35.262 23.0428 35.2246 19.5058Z" fill="#479DDB"/>
<mask id="mask0_0_1018" style="mask-type:alpha" maskUnits="userSpaceOnUse" x="0" y="0" width="54" height="57">
<path fill-rule="evenodd" clip-rule="evenodd" d="M0 0H53.2492V56.7551H0V0Z" fill="white"/>
</mask>
<g mask="url(#mask0_0_1018)">
<path fill-rule="evenodd" clip-rule="evenodd" d="M0.41588 24.1494C-0.220865 23.4061 -0.120983 22.4206 0.678069 21.648C0.802921 21.5311 0.948582 21.4309 1.08176 21.3223C3.56631 19.3263 6.04671 17.3302 8.53126 15.3383C10.1252 14.0605 11.7108 12.7659 13.3256 11.5174C13.8125 11.1415 14.0039 10.7448 13.9956 10.1268C13.9623 7.48764 13.9748 4.84848 13.9831 2.20933C13.9873 1.26975 14.2786 0.467984 15.2941 0.225783C16.4635 -0.0581764 17.3292 0.672602 17.3791 2.03394C17.4374 3.62913 17.3999 5.22431 17.4041 6.82367C17.4082 7.20368 17.4041 7.58368 17.4041 7.98039C17.8452 8.04303 18.0367 7.70061 18.2864 7.50852C21.1288 5.24101 23.9588 2.96098 26.7971 0.68513C27.9333 -0.221036 28.6033 -0.237739 29.7561 0.689306C37.2847 6.74016 44.8091 12.7952 52.3293 18.8586C53.324 19.6562 53.5154 20.65 52.887 21.4685C52.2586 22.2995 51.189 22.3037 50.1403 21.4643C43.1694 15.877 36.1985 10.2938 29.2484 4.67727C28.5242 4.09265 28.0872 3.9799 27.2799 4.63969C21.9695 8.97843 16.605 13.2462 11.2405 17.5139C10.6787 17.9649 10.4332 18.4117 10.4332 19.1592C10.4581 30.1627 10.4623 41.1661 10.429 52.1737C10.4248 53.13 10.6787 53.3973 11.6276 53.3764C14.4992 53.3137 17.3708 53.3221 20.2382 53.3722C21.083 53.3889 21.2703 53.1091 21.262 52.3115C21.2245 48.6702 21.2412 45.0246 21.2454 41.3791C21.2495 39.692 21.7947 39.1325 23.4844 39.1241C26.7014 39.1116 29.9184 39.1116 33.1354 39.1241C34.6212 39.1325 35.2329 39.7171 35.2413 41.1995C35.2579 45.7095 35.2579 50.2236 35.2371 54.7377C35.2329 56.0782 34.6045 56.7505 33.5183 56.7171C32.4654 56.6879 31.8911 56.0364 31.8744 54.7377C31.8453 52.7625 31.8661 50.7832 31.8661 48.8038C31.8661 46.9956 31.837 45.1917 31.8786 43.3877C31.8952 42.6861 31.6414 42.4982 30.9796 42.5107C29.2151 42.5441 27.4505 42.565 25.6901 42.5024C24.8411 42.4732 24.5664 42.6903 24.5789 43.5839C24.6288 47.1919 24.6039 50.804 24.5997 54.412C24.5955 56.2995 24.1586 56.7463 22.2691 56.7505C17.9784 56.7588 13.6918 56.7547 9.40106 56.7463C7.52828 56.7421 7.09962 56.2995 7.09962 54.3869C7.09546 43.6967 7.09546 33.0023 7.09546 22.3078V20.8672C5.55146 22.1032 4.1989 23.2182 2.80888 24.283C1.88497 24.9929 1.07343 24.9178 0.41588 24.1494Z" fill="#479DDB"/>
</g>
<path fill-rule="evenodd" clip-rule="evenodd" d="M62.4839 52.7125C59.5457 52.7125 57.1319 50.278 57.1569 47.3424C57.1818 44.4067 59.529 42.0641 62.4547 42.0515C65.4137 42.039 67.8067 44.4192 67.8109 47.3799C67.8192 50.3782 65.4845 52.7167 62.4839 52.7125ZM62.5172 38.5814C57.7603 38.5271 53.8649 42.4524 53.765 47.4092C53.6652 52.1112 57.5897 56.0867 62.4256 56.1827C67.1076 56.2746 71.132 52.3367 71.261 47.5386C71.39 42.7907 67.3365 38.6398 62.5172 38.5814Z" fill="#479DDB"/>
<mask id="mask1_0_1018" style="mask-type:alpha" maskUnits="userSpaceOnUse" x="41" y="25" width="43" height="60">
<path fill-rule="evenodd" clip-rule="evenodd" d="M41.0149 25.8062H83.9999V84.9999H41.0149V25.8062Z" fill="white"/>
</mask>
<g mask="url(#mask1_0_1018)">
<path fill-rule="evenodd" clip-rule="evenodd" d="M78.4565 56.8298C76.563 61.7156 73.8412 66.1337 70.9488 70.4599C68.6598 73.8883 66.3251 77.2874 63.749 80.507C62.6628 81.8642 62.5462 81.8934 61.4767 80.5697C56.3785 74.2557 51.4885 67.7915 48.0592 60.3668C46.328 56.6168 44.7756 52.8043 44.4593 48.5991C44.143 44.4567 45.1252 40.6608 47.4391 37.2658C51.0557 31.9666 56.1621 29.3567 61.2519 29.198C72.4303 29.2189 80.6456 37.366 80.5998 47.1418C80.5832 50.5159 79.6676 53.7021 78.4565 56.8298ZM78.0612 32.4218C74.2906 28.4881 69.6878 26.1956 64.2359 25.8573C56.982 25.4147 50.831 27.8367 46.0866 33.4365C42.341 37.8588 40.6514 43.0202 41.08 48.8497C41.413 53.3596 43.0111 57.4896 44.8672 61.536C48.5295 69.5203 53.7608 76.4648 59.246 83.2339C61.2311 85.6851 64.0361 85.539 66.0421 83.0794C67.8857 80.8202 69.5754 78.4525 71.2276 76.0514C75.2104 70.2511 79.1515 64.4257 81.7277 57.8028C83.0469 54.412 83.95 50.946 84 46.8495C84.0041 41.5377 82.0273 36.5643 78.0612 32.4218Z" fill="#479DDB"/>
</g>
<mask id="mask2_0_1018" style="mask-type:alpha" maskUnits="userSpaceOnUse" x="0" y="0" width="54" height="57">
<path fill-rule="evenodd" clip-rule="evenodd" d="M0 0H53.2492V56.7551H0V0Z" fill="white"/>
</mask>
<g mask="url(#mask2_0_1018)">
<path fill-rule="evenodd" clip-rule="evenodd" d="M52.887 21.4685C52.2586 22.2995 51.189 22.3037 50.1403 21.4643C43.1694 15.877 36.1985 10.2938 29.2484 4.67727C28.5242 4.09265 28.0872 3.9799 27.2799 4.63969C21.9695 8.97843 16.605 13.2462 11.2405 17.5139C10.6787 17.9649 10.4332 18.4117 10.4332 19.1592C10.4581 30.1627 10.4623 41.1661 10.429 52.1737C10.4248 53.13 10.6787 53.3973 11.6276 53.3764C14.4992 53.3137 17.3708 53.3221 20.2382 53.3722C21.083 53.3889 21.2703 53.1091 21.262 52.3115C21.2245 48.6702 21.2412 45.0246 21.2454 41.3791C21.2495 39.692 21.7947 39.1325 23.4844 39.1241C26.7014 39.1116 29.9184 39.1116 33.1354 39.1241C34.6212 39.1325 35.2329 39.7171 35.2413 41.1995C35.2579 45.7095 35.2579 50.2236 35.2371 54.7377C35.2329 56.0782 34.6045 56.7505 33.5183 56.7171C32.4654 56.6879 31.8911 56.0364 31.8744 54.7377C31.8453 52.7625 31.8661 50.7832 31.8661 48.8038C31.8661 46.9956 31.837 45.1917 31.8786 43.3877C31.8952 42.6861 31.6414 42.4982 30.9796 42.5107C29.2151 42.5441 27.4505 42.565 25.6901 42.5024C24.8411 42.4732 24.5664 42.6903 24.5789 43.5839C24.6288 47.1919 24.6039 50.804 24.5997 54.412C24.5955 56.2995 24.1586 56.7463 22.2691 56.7505C17.9784 56.7588 13.6918 56.7547 9.40106 56.7463C7.52828 56.7421 7.09962 56.2995 7.09962 54.3869C7.09546 43.6967 7.09546 33.0023 7.09546 22.3078V20.8672C5.55146 22.1032 4.1989 23.2182 2.80888 24.283C1.88497 24.9929 1.07343 24.9178 0.41588 24.1494C-0.220865 23.4061 -0.120983 22.4206 0.678069 21.648C0.802921 21.5311 0.948582 21.4309 1.08176 21.3223C3.56631 19.3263 6.04671 17.3302 8.53126 15.3383C10.1252 14.0605 11.7108 12.7659 13.3256 11.5174C13.8125 11.1415 14.0039 10.7448 13.9956 10.1268C13.9623 7.48764 13.9748 4.84848 13.9831 2.20933C13.9873 1.26975 14.2786 0.467984 15.2941 0.225783C16.4635 -0.0581764 17.3292 0.672602 17.3791 2.03394C17.4374 3.62913 17.3999 5.22431 17.4041 6.82367C17.4082 7.20368 17.4041 7.58368 17.4041 7.98039C17.8452 8.04303 18.0367 7.70061 18.2864 7.50852C21.1288 5.24101 23.9588 2.96098 26.7971 0.68513C27.9333 -0.221036 28.6033 -0.237739 29.7561 0.689306C37.2847 6.74016 44.8091 12.7952 52.3293 18.8586C53.324 19.6562 53.5154 20.65 52.887 21.4685Z" fill="#FEFEFE"/>
</g>
<path fill-rule="evenodd" clip-rule="evenodd" d="M62.4839 52.7125C59.5457 52.7125 57.1319 50.278 57.1569 47.3424C57.1818 44.4067 59.529 42.0641 62.4547 42.0515C65.4137 42.039 67.8067 44.4192 67.8109 47.3799C67.8192 50.3782 65.4845 52.7167 62.4839 52.7125ZM62.5172 38.5814C57.7603 38.5271 53.8649 42.4524 53.765 47.4092C53.6652 52.1112 57.5897 56.0867 62.4256 56.1827C67.1076 56.2746 71.132 52.3367 71.261 47.5386C71.39 42.7907 67.3365 38.6398 62.5172 38.5814Z" fill="#FEFEFE"/>
<mask id="mask3_0_1018" style="mask-type:alpha" maskUnits="userSpaceOnUse" x="41" y="25" width="43" height="60">
<path fill-rule="evenodd" clip-rule="evenodd" d="M41.0149 25.8062H83.9999V84.9999H41.0149V25.8062Z" fill="white"/>
</mask>
<g mask="url(#mask3_0_1018)">
<path fill-rule="evenodd" clip-rule="evenodd" d="M78.4565 56.8298C76.563 61.7156 73.8412 66.1337 70.9488 70.4599C68.6598 73.8883 66.3251 77.2874 63.749 80.507C62.6628 81.8642 62.5462 81.8934 61.4767 80.5697C56.3785 74.2557 51.4885 67.7915 48.0592 60.3668C46.328 56.6168 44.7756 52.8043 44.4593 48.5991C44.143 44.4567 45.1252 40.6608 47.4391 37.2658C51.0557 31.9666 56.1621 29.3567 61.2519 29.198C72.4303 29.2189 80.6456 37.366 80.5998 47.1418C80.5832 50.5159 79.6676 53.7021 78.4565 56.8298ZM78.0612 32.4218C74.2906 28.4881 69.6878 26.1956 64.2359 25.8573C56.982 25.4147 50.831 27.8367 46.0866 33.4365C42.341 37.8588 40.6514 43.0202 41.08 48.8497C41.413 53.3596 43.0111 57.4896 44.8672 61.536C48.5295 69.5203 53.7608 76.4648 59.246 83.2339C61.2311 85.6851 64.0361 85.539 66.0421 83.0794C67.8857 80.8202 69.5754 78.4525 71.2276 76.0514C75.2104 70.2511 79.1515 64.4257 81.7277 57.8028C83.0469 54.412 83.95 50.946 84 46.8495C84.0041 41.5377 82.0273 36.5643 78.0612 32.4218Z" fill="#FEFEFE"/>
</g>
<path fill-rule="evenodd" clip-rule="evenodd" d="M31.1003 28.5048C30.1681 28.4839 29.2317 28.4965 28.2995 28.4965C27.3298 28.4965 26.3601 28.4756 25.3946 28.5048C24.8452 28.5257 24.5747 28.4004 24.5872 27.7699C24.6205 25.8239 24.6122 23.8821 24.5914 21.9362C24.5872 21.4058 24.762 21.1928 25.3072 21.2012C27.2798 21.2179 29.2483 21.2179 31.221 21.2012C31.7287 21.197 31.8744 21.4183 31.8702 21.8902C31.8536 23.8696 31.8494 25.849 31.8744 27.8241C31.8785 28.4129 31.5872 28.5132 31.1003 28.5048ZM35.2246 19.5058C35.2121 18.4326 34.6669 17.8605 33.6223 17.848C30.064 17.8062 26.5058 17.8062 22.9475 17.848C21.7988 17.8605 21.262 18.4827 21.2536 19.6478C21.2328 23.0803 21.2328 26.5129 21.2536 29.9455C21.262 31.2358 21.8862 31.8413 23.1847 31.858C24.8785 31.8789 26.5723 31.8622 28.2662 31.8622C29.9558 31.8622 31.6497 31.8789 33.3435 31.858C34.5504 31.8455 35.2038 31.2901 35.2163 30.1167C35.262 26.5797 35.262 23.0428 35.2246 19.5058Z" fill="#FEFEFE"/>
<path fill-rule="evenodd" clip-rule="evenodd" d="M62.4839 52.7125C59.5457 52.7125 57.1319 50.278 57.1569 47.3424C57.1818 44.4067 59.529 42.0641 62.4547 42.0515C65.4137 42.039 67.8067 44.4192 67.8109 47.3799C67.8192 50.3782 65.4845 52.7167 62.4839 52.7125ZM62.5172 38.5814C57.7603 38.5271 53.8649 42.4524 53.765 47.4092C53.6652 52.1112 57.5897 56.0867 62.4256 56.1827C67.1076 56.2746 71.132 52.3367 71.261 47.5386C71.39 42.7907 67.3365 38.6398 62.5172 38.5814Z" fill="#479DDB"/>
<path fill-rule="evenodd" clip-rule="evenodd" d="M62.4839 52.7125C59.5457 52.7125 57.1319 50.278 57.1569 47.3424C57.1818 44.4067 59.529 42.0641 62.4547 42.0515C65.4137 42.039 67.8067 44.4192 67.8109 47.3799C67.8192 50.3782 65.4845 52.7167 62.4839 52.7125ZM62.5172 38.5814C57.7603 38.5271 53.8649 42.4524 53.765 47.4092C53.6652 52.1112 57.5897 56.0867 62.4256 56.1827C67.1076 56.2746 71.132 52.3367 71.261 47.5386C71.39 42.7907 67.3365 38.6398 62.5172 38.5814Z" fill="#FEFEFE"/>
</svg>
