<svg width="62" height="88" viewBox="0 0 62 88" fill="none" xmlns="http://www.w3.org/2000/svg">
<mask id="mask0_0_1113" style="mask-type:alpha" maskUnits="userSpaceOnUse" x="0" y="0" width="62" height="88">
<path fill-rule="evenodd" clip-rule="evenodd" d="M0 0H62V88H0V0Z" fill="white"/>
</mask>
<g mask="url(#mask0_0_1113)">
<path fill-rule="evenodd" clip-rule="evenodd" d="M57.0103 57.4764H19.2702C14.3558 57.4764 9.44143 57.4808 4.53137 57.5067C3.42683 57.511 3.12049 57.2171 3.17658 56.128C3.26718 54.3518 3.19815 54.3474 4.93695 54.3474C22.4285 54.3474 39.9243 54.3474 57.4158 54.3518C58.9346 54.3518 58.7879 54.1486 58.7965 55.7304C58.8052 57.4764 58.8008 57.4764 57.0103 57.4764ZM52.1132 61.6729C50.9353 69.1194 49.7919 76.5702 48.6787 84.0297C48.545 84.907 48.0186 84.7946 47.4534 84.7946H26.7949C22.7089 84.7946 18.6187 84.7774 14.5327 84.8076C13.769 84.8119 13.4152 84.6607 13.2858 83.7963C12.2028 76.5184 11.0551 69.2491 9.93329 61.9754C9.73051 60.6443 9.74776 60.64 11.0508 60.64H31.0621C37.767 60.64 44.4763 60.653 51.1812 60.6227C52.0226 60.6184 52.2512 60.7869 52.1132 61.6729ZM35.0833 13.1216C37.7282 10.3513 41.0116 9.06775 44.8085 9.04614C45.2572 9.04614 45.6671 9.00292 45.6412 9.68145C45.5635 11.8251 45.775 13.9773 45.2745 16.1123C44.0362 21.3504 39.5705 25.3048 34.2419 25.858C33.3229 25.9531 33.0511 25.6938 33.0986 24.7819C33.1719 23.4594 33.1201 22.1283 33.1201 20.7972C33.1201 19.9025 33.2237 18.9863 33.0986 18.109C32.8009 16.0345 33.763 14.5003 35.0833 13.1216ZM61.9937 53.6732C61.9937 51.5988 61.5406 51.145 59.4653 51.145C51.0733 51.145 42.6771 51.1277 34.2851 51.1666C33.3316 51.1709 33.0899 50.9116 33.0986 49.9651C33.1374 43.4262 33.1417 36.883 33.0942 30.3397C33.0856 29.3198 33.3833 29.0345 34.3757 28.9265C40.9469 28.2048 45.4212 24.6738 47.8201 18.5368C49.3604 14.591 48.6054 10.4334 48.7477 6.36229C48.7607 5.97333 48.463 5.91282 48.1523 5.91714C46.0036 5.93011 43.8463 5.79613 41.7106 6.1462C38.5091 6.67346 35.7564 8.14288 33.1201 10.5588V9.10232C33.1201 6.65617 33.1374 4.21002 33.1072 1.7682C33.0942 0.748247 32.4169 0.0265029 31.5798 0.000571948C30.691 -0.025359 29.9963 0.705028 29.9273 1.76387C29.9101 2.08369 29.923 2.40782 29.923 2.73196C29.923 18.4763 29.9144 34.2207 29.9446 49.9651C29.9446 50.8986 29.7375 51.1925 28.7667 51.1666C26.1175 51.0974 23.4597 51.145 20.8062 51.145C14.6362 51.145 8.47063 51.1406 2.30071 51.145C0.527391 51.1493 0.00963461 51.6809 0.00963461 53.4788C0.00531998 55.2032 -0.0119386 56.9319 0.0139492 58.6563C0.0312078 60.0263 0.626627 60.6098 2.003 60.6357C3.15069 60.653 4.29838 60.6875 5.44176 60.6227C6.27017 60.5752 6.61102 60.7956 6.74478 61.6945C7.91836 69.6553 9.15666 77.6031 10.3691 85.5596C10.7013 87.7465 10.9861 87.9971 13.2038 87.9971H39.8855C43.0783 87.9971 46.2711 88.0058 49.464 87.9928C50.8058 87.9885 51.2632 87.5995 51.4875 86.277C51.7809 84.544 52.0398 82.8023 52.3073 81.0649C53.3083 74.5303 54.3179 67.9957 55.2974 61.4612C55.3923 60.8302 55.6253 60.6098 56.2552 60.627C57.5065 60.6659 58.7663 60.6573 60.0219 60.6314C61.381 60.6098 61.9678 60.0177 61.9894 58.6347C62.0109 56.9794 61.9937 55.3285 61.9937 53.6732Z" fill="#FCFDFD"/>
</g>
<path fill-rule="evenodd" clip-rule="evenodd" d="M43.9973 57.4766C39.6611 57.4766 35.3206 57.4766 30.9844 57.4809C27.0796 57.4809 23.1749 57.4766 19.2701 57.4766H43.9973Z" fill="#479EDB"/>
</svg>
