<svg width="83" height="88" viewBox="0 0 83 88" fill="none" xmlns="http://www.w3.org/2000/svg">
<path fill-rule="evenodd" clip-rule="evenodd" d="M72.9801 82.1777C72.0892 85.3115 70.0163 87.2217 66.8361 87.8708C66.4453 87.9504 66.0393 87.9585 65.6413 87.9999C64.3981 88.0063 63.2451 87.5868 62.0775 87.2533C56.8622 85.7619 51.6494 84.2632 46.4357 82.7652C37.6896 80.253 28.9444 77.7392 20.1984 75.2286C15.3176 73.828 10.4352 72.4348 5.55596 71.0318C2.05015 70.0231 -0.308235 66.5096 0.0326975 62.8476C0.162959 61.4494 0.648627 60.1438 1.02735 58.8123C4.0491 48.1767 7.08453 37.5451 10.1175 26.9128C10.7986 24.5247 12.2186 22.7396 14.376 21.5297C21.2212 17.6899 28.0575 13.8356 34.897 9.98692C40.126 7.04463 45.3727 4.13317 50.5767 1.14787C53.7657 -0.68193 57.3246 -0.231579 59.7955 1.84247C60.6495 2.55978 61.3056 3.43614 61.8307 4.42448C66.5539 13.3146 71.2835 22.2008 76.0115 31.0885C77.9076 34.6532 79.8109 38.2138 81.6956 41.7841C82.8712 44.0123 83.143 46.3209 82.4394 48.7869C79.2657 59.9109 76.1458 71.0512 72.9801 82.1777Z" fill="#009FE1"/>
</svg>
