<svg width="24" height="36" viewBox="0 0 24 36" fill="none" xmlns="http://www.w3.org/2000/svg">
<mask id="mask0_0_1880" style="mask-type:alpha" maskUnits="userSpaceOnUse" x="0" y="0" width="24" height="36">
<path fill-rule="evenodd" clip-rule="evenodd" d="M0 0H24V36H0V0Z" fill="white"/>
</mask>
<g mask="url(#mask0_0_1880)">
<path fill-rule="evenodd" clip-rule="evenodd" d="M22.3252 13.0198C22.2662 13.526 22.1859 14.0344 22.0596 14.5286C21.8518 15.3373 21.4996 16.0906 21.0211 16.7863C20.5713 17.4408 20.0299 18.0184 19.4806 18.5916C18.9129 19.184 18.3232 19.7589 17.8368 20.4216C17.4223 20.9866 17.1134 21.6015 16.9416 22.2769C16.8175 22.7633 16.7939 23.2613 16.7933 23.7604C16.7911 24.7657 16.7922 25.7716 16.7928 26.7769C16.7928 26.9142 16.7961 27.0515 16.7956 27.1882C16.7956 27.377 16.7905 27.3825 16.6001 27.3825C15.5808 27.3831 14.5615 27.3825 13.5422 27.3825H11.9994C10.4611 27.382 8.92289 27.3825 7.38463 27.382C7.20267 27.382 7.19312 27.3738 7.19312 27.1975C7.19312 26 7.18919 24.8025 7.19593 23.605C7.20267 22.5585 6.82695 21.6454 6.16313 20.8482C5.64532 20.2261 5.08652 19.6364 4.54063 19.0369C3.97172 18.4126 3.4146 17.7806 2.96868 17.0636C2.62441 16.509 2.34416 15.9265 2.13187 15.3099C1.65282 13.9153 1.53488 12.4789 1.61463 11.0234C1.65731 10.2476 1.814 9.48657 2.04819 8.74095C2.40763 7.59562 2.95688 6.54802 3.69428 5.59321C4.40416 4.67464 5.25163 3.89553 6.23052 3.25752C6.87581 2.83749 7.56267 2.49378 8.28939 2.22529C9.62659 1.73114 11.0087 1.50932 12.4341 1.56862C13.0923 1.59608 13.7438 1.68502 14.3885 1.83217C15.118 1.99908 15.8201 2.23792 16.494 2.55418C17.4543 3.00496 18.3254 3.58696 19.1044 4.30073C19.953 5.07819 20.6516 5.96877 21.1958 6.97244C21.5457 7.61813 21.8141 8.29622 22.0163 9.00176C22.3954 10.3222 22.4836 11.663 22.3252 13.0198ZM16.6456 31.7525C16.458 32.0001 16.1986 32.0814 15.8981 32.0814C14.7064 32.0808 13.5146 32.0808 12.3223 32.0808C11.6023 32.0808 10.8824 32.0814 10.1629 32.0814C9.46709 32.0814 8.77069 32.0808 8.07486 32.0808C7.71318 32.0814 7.42226 31.9534 7.27119 31.6185C7.21671 31.4977 7.19874 31.3528 7.19762 31.2188C7.19088 30.5105 7.19537 29.8022 7.19313 29.0939C7.19313 28.9572 7.2813 28.9561 7.38183 28.9561C8.43317 28.9567 9.48507 28.9561 10.537 28.9561H11.9955C13.5191 28.9556 15.0433 28.9556 16.567 28.9561C16.7933 28.9561 16.7928 28.9589 16.7922 29.1774C16.7922 29.8357 16.7961 30.4935 16.795 31.1518C16.7945 31.3621 16.7827 31.5707 16.6456 31.7525ZM12.1185 34.4225C11.4018 34.4665 10.8082 34.0278 10.6645 33.661H13.3153C13.2585 33.9432 12.6615 34.3891 12.1185 34.4225ZM23.5765 8.65091C23.4097 8.07056 23.2047 7.50612 22.9565 6.95487C22.5532 6.06101 22.0405 5.23248 21.4193 4.46984C20.1338 2.8913 18.5461 1.6982 16.6406 0.910852C15.9683 0.63303 15.2775 0.412309 14.5665 0.263514C13.8404 0.110877 13.1041 0.0224784 12.3577 0.00435948C11.2525 -0.0230934 10.1629 0.0779331 9.0925 0.340931C8.62861 0.455135 8.17482 0.614911 7.72216 0.770294C7.05665 0.998702 6.42989 1.31166 5.8256 1.66635C4.87591 2.2231 4.02338 2.89954 3.26184 3.68688C2.30373 4.67738 1.54724 5.79801 0.987308 7.04492C0.707625 7.667 0.470063 8.30555 0.33303 8.97375C0.2252 9.49701 0.102207 10.0208 0.0533467 10.5495C-0.00169136 11.1442 -0.0129236 11.7465 0.0140338 12.3428C0.042676 12.9665 0.106138 13.5924 0.216776 14.2068C0.314496 14.7476 0.48972 15.2758 0.647533 15.8051C0.822756 16.3932 1.09401 16.9444 1.39223 17.4803C1.96564 18.5092 2.71707 19.4091 3.52523 20.2679C3.97396 20.7444 4.41988 21.2238 4.84839 21.7179C5.34261 22.2889 5.61612 22.9335 5.59534 23.7088C5.56389 24.9239 5.58691 26.1406 5.58691 27.3567H5.58804C5.58804 28.6459 5.58972 29.9351 5.58691 31.2243C5.58579 31.5861 5.64701 31.9348 5.80987 32.2598C6.23277 33.1037 6.92355 33.5748 7.88672 33.6396C8.18493 33.6594 8.48483 33.6445 8.78417 33.6467C8.85437 33.6473 8.91334 33.6489 8.94816 33.7373C9.04364 33.9784 9.13293 34.2265 9.26491 34.4489C9.72656 35.2269 10.4201 35.7156 11.312 35.9209C11.918 36.0609 12.5183 36.0132 13.1018 35.7924C14.0807 35.4229 14.7097 34.7317 15.0338 33.767C15.0658 33.672 15.1113 33.6456 15.2017 33.6456C15.5011 33.6467 15.8026 33.6659 16.0986 33.6363C16.3738 33.6083 16.6636 33.5693 16.9124 33.4595C17.8744 33.0351 18.3782 32.2906 18.3984 31.2539C18.4125 30.5457 18.4012 29.8368 18.4018 29.1285C18.4029 27.1717 18.3995 25.2154 18.4085 23.2586C18.4113 22.7293 18.5798 22.2379 18.8449 21.7761C19.1729 21.2045 19.6239 20.7307 20.081 20.2613C20.8285 19.4948 21.5867 18.7387 22.1988 17.858C22.7004 17.1377 23.1154 16.3728 23.3883 15.546C23.5669 15.0051 23.6854 14.4451 23.8112 13.8895C23.9724 13.1762 24.0016 12.4476 23.9999 11.7218C23.9971 10.6824 23.8663 9.65623 23.5765 8.65091Z" fill="white"/>
</g>
<path fill-rule="evenodd" clip-rule="evenodd" d="M15.7599 13.0894C15.2444 13.5924 14.7316 14.0981 14.2172 14.6021C13.7853 15.0254 13.3545 15.4504 12.9187 15.8699C12.8249 15.9599 12.7862 16.0538 12.7862 16.1834C12.7895 19.2965 12.789 22.4102 12.789 25.5234C12.789 25.5646 12.789 25.6057 12.7884 25.6469C12.7862 25.8149 12.7738 25.8281 12.6059 25.8287C12.2083 25.8292 11.8112 25.8298 11.4136 25.8292C11.2064 25.8292 11.2002 25.8237 11.2002 25.6222V20.8904C11.2002 19.3218 11.1991 17.7537 11.2024 16.1856C11.203 16.0571 11.1665 15.9616 11.0727 15.8704C10.1393 14.9628 9.20983 14.0514 8.27699 13.1427C8.04841 12.9209 7.92766 12.6744 7.98102 12.3455C8.06807 11.8085 8.83635 11.4708 9.3199 11.9156C9.66361 12.2313 9.99271 12.5618 10.3269 12.8879C10.8424 13.3909 11.3586 13.8933 11.8702 14.4006C11.9679 14.4972 12.0325 14.4851 12.1246 14.3951C12.9412 13.5918 13.7606 12.7913 14.58 11.9908C15.0253 11.5548 15.6701 11.652 15.9385 12.2044C16.0503 12.4344 16.0452 12.8111 15.7599 13.0894Z" fill="white"/>
</svg>
