<svg width="30" height="29" viewBox="0 0 30 29" fill="none" xmlns="http://www.w3.org/2000/svg">
<path d="M28 12V26.9827C28 27.3607 27.7088 28 27.35 28H2.65C2.2912 28 2 27.3607 2 26.9827V12" stroke="white" stroke-width="2" stroke-linecap="round" stroke-linejoin="round"/>
<path fill-rule="evenodd" clip-rule="evenodd" d="M20 4.33333C20 4.70133 19.68 5 19.2857 5H10.7143C10.32 5 10 4.70133 10 4.33333V1.66667C10 1.29867 10.32 1 10.7143 1H19.2857C19.68 1 20 1.29867 20 1.66667V4.33333V4.33333Z" stroke="white" stroke-width="2" stroke-linecap="round" stroke-linejoin="round"/>
<path fill-rule="evenodd" clip-rule="evenodd" d="M5 13C2.79067 13 1 10.8818 1 8.69633V5.19654C1 4.83186 1.29867 5.08641 1.66667 5.08641H28.3333C28.7013 5.08641 29 4.83186 29 5.19654V8.69633C29 10.8818 27.2093 13 25 13H5Z" stroke="white" stroke-width="2" stroke-linecap="round" stroke-linejoin="round"/>
<path d="M19 14V16.9377C19 17.2531 18.6864 18 18.3 18H12.7C12.3136 18 12 17.2531 12 16.9377V14" stroke="white" stroke-width="2" stroke-linecap="round" stroke-linejoin="round"/>
</svg>
