<svg width="36" height="36" viewBox="0 0 36 36" fill="none" xmlns="http://www.w3.org/2000/svg">
<mask id="mask0_0_1868" style="mask-type:alpha" maskUnits="userSpaceOnUse" x="0" y="0" width="36" height="36">
<path fill-rule="evenodd" clip-rule="evenodd" d="M0 0H36V36H0V0Z" fill="white"/>
</mask>
<g mask="url(#mask0_0_1868)">
<path fill-rule="evenodd" clip-rule="evenodd" d="M18.011 33.5335C9.44221 33.535 2.46683 26.5736 2.46537 18.019C2.46391 9.43082 9.42322 2.46798 18.0081 2.46652C26.5696 2.46506 33.5259 9.42498 33.5347 17.9986C33.5435 26.5561 26.5725 33.5321 18.011 33.5335ZM18.0139 2.53466e-05C8.0927 -0.0116573 0.0146447 8.04643 3.96e-05 17.9679C-0.0145655 27.9127 8.04158 35.9898 17.9862 36C27.9249 36.0117 35.9927 27.9492 36 17.9956C36.0088 8.0771 27.9468 0.011708 18.0139 2.53466e-05Z" fill="white"/>
</g>
<path fill-rule="evenodd" clip-rule="evenodd" d="M22.8291 23.5667C23.0292 23.8384 23.2292 24.11 23.4483 24.4064C22.6377 25.0256 21.7585 25.4433 20.8077 25.712C16.6716 26.8758 12.3441 24.5787 10.9946 20.4971C10.8924 20.1905 10.7638 20.0897 10.4381 20.0985C9.45668 20.1247 8.47376 20.1087 7.44702 20.1087C7.63105 19.5946 7.79316 19.1142 7.98449 18.6454C8.01224 18.5739 8.17581 18.5242 8.27805 18.5228C9.05212 18.5125 9.82765 18.5169 10.6222 18.5169V17.3428H8.39197C8.58037 16.8215 8.74395 16.341 8.93236 15.8708C8.95864 15.8051 9.10323 15.754 9.19379 15.7525C9.67867 15.7408 10.165 15.7394 10.6514 15.7511C10.8471 15.7554 10.9449 15.7072 11.0165 15.5013C12.0768 12.4215 14.2048 10.5158 17.415 9.974C19.486 9.62352 21.4284 10.1755 23.1927 11.3175C23.4264 11.4694 23.644 11.6475 23.8704 11.8096C23.9201 11.8447 23.977 11.8695 24.0676 11.9177C23.571 12.4668 23.127 12.956 22.6845 13.4437C18.966 10.3391 14.2092 12.4989 13.0743 15.7394H20.3185C20.133 16.2549 19.9796 16.7266 19.7868 17.1822C19.7503 17.2669 19.5605 17.3311 19.4407 17.3311C17.339 17.3399 15.2374 17.3384 13.1357 17.3384H12.6902V18.5038H19.3735C19.1851 19.0266 19.0318 19.4983 18.8375 19.9539C18.8025 20.0386 18.6111 20.1014 18.4899 20.1014C16.8147 20.1116 15.138 20.1087 13.4614 20.1087H13.0933C14.0251 23.1754 18.4753 25.3366 22.2317 22.7635C22.4303 23.0293 22.629 23.298 22.8291 23.5667Z" fill="white"/>
</svg>
