<svg width="24" height="24" viewBox="0 0 24 24" fill="none" xmlns="http://www.w3.org/2000/svg">
<path d="M17.7142 10.4V16.5804C17.7142 16.7363 17.5862 17 17.4285 17H6.57136C6.41364 17 6.28564 16.7363 6.28564 16.5804V10.4" stroke="#00A1E2" stroke-linecap="round" stroke-linejoin="round"/>
<path fill-rule="evenodd" clip-rule="evenodd" d="M14 7.375C14 7.5268 13.872 7.65 13.7143 7.65H10.2857C10.128 7.65 10 7.5268 10 7.375V6.275C10 6.1232 10.128 6 10.2857 6H13.7143C13.872 6 14 6.1232 14 6.275V7.375V7.375Z" stroke="#00A1E2" stroke-linecap="round" stroke-linejoin="round"/>
<path fill-rule="evenodd" clip-rule="evenodd" d="M16.2857 11.225H7.71429C6.76743 11.225 6 10.3417 6 9.43036V7.97094C6 7.81886 6.128 7.92501 6.28571 7.92501H17.7143C17.872 7.92501 18 7.81886 18 7.97094V9.43036C18 10.3417 17.2326 11.225 16.2857 11.225V11.225Z" stroke="#00A1E2" stroke-linecap="round" stroke-linejoin="round"/>
<path d="M13.4287 11.5V12.9138C13.4287 13.0656 13.3007 13.425 13.143 13.425H10.8572C10.6995 13.425 10.5715 13.0656 10.5715 12.9138V11.5" stroke="#00A1E2" stroke-linecap="round" stroke-linejoin="round"/>
</svg>
