<svg width="24" height="24" viewBox="0 0 24 24" fill="none" xmlns="http://www.w3.org/2000/svg">
<mask id="mask0_0_1904" style="mask-type:alpha" maskUnits="userSpaceOnUse" x="4" y="4" width="16" height="16">
<rect x="4" y="4" width="16" height="16" fill="white"/>
</mask>
<g mask="url(#mask0_0_1904)">
<path fill-rule="evenodd" clip-rule="evenodd" d="M14.8621 12.1954L13.7994 13.258C13.3067 13.1114 12.3874 12.778 11.8047 12.1954C11.2221 11.6127 10.8887 10.6934 10.7421 10.2007L11.8047 9.13802C12.0654 8.87736 12.0654 8.45602 11.8047 8.19536L9.13806 5.52869C8.87739 5.26802 8.45606 5.26802 8.19539 5.52869L6.38739 7.33669C6.13406 7.59002 5.99139 7.93802 5.99673 8.29336C6.01206 9.24269 6.26339 12.54 8.86206 15.1387C11.4607 17.7374 14.7581 17.988 15.7081 18.004C15.7114 18.004 15.7234 18.004 15.7267 18.004C16.0787 18.004 16.4114 17.8654 16.6634 17.6134L18.4714 15.8054C18.7321 15.5447 18.7321 15.1234 18.4714 14.8627L15.8047 12.1954C15.5441 11.9347 15.1227 11.9347 14.8621 12.1954ZM9.80473 14.1954C7.56073 11.9514 7.34339 9.09469 7.33006 8.27936L8.66673 6.94269L10.3907 8.66669L9.52873 9.52869C9.36939 9.68736 9.30139 9.91669 9.34739 10.1367C9.36339 10.2134 9.75473 12.0314 10.8614 13.138C11.9681 14.2447 13.7861 14.636 13.8627 14.652C14.0847 14.6994 14.3121 14.6307 14.4707 14.4714L15.3334 13.6094L17.0574 15.3334L15.7201 16.67C14.8881 16.656 12.0414 16.4327 9.80473 14.1954Z" fill="#00A1E2"/>
</g>
</svg>
